<svg width="37" height="37" viewBox="0 0 37 37" fill="none" xmlns="http://www.w3.org/2000/svg">
<path d="M19 26.1818C16.83 26.1818 14.749 25.3198 13.2146 23.7854C11.6802 22.251 10.8182 20.17 10.8182 18C10.8182 15.83 11.6802 13.749 13.2146 12.2146C14.749 10.6802 16.83 9.81818 19 9.81818C21.17 9.81818 23.251 10.6802 24.7854 12.2146C26.3198 13.749 27.1818 15.83 27.1818 18C27.1818 20.17 26.3198 22.251 24.7854 23.7854C23.251 25.3198 21.17 26.1818 19 26.1818ZM17.6364 3H20.3636V7.09091H17.6364V3ZM17.6364 28.9091H20.3636V33H17.6364V28.9091ZM7.42955 8.35773L9.35773 6.42955L12.25 9.32182L10.3218 11.25L7.42955 8.35773ZM25.75 26.6782L27.6782 24.75L30.5705 27.6423L28.6423 29.5705L25.75 26.6782ZM28.6423 6.42818L30.5705 8.35773L27.6782 11.25L25.75 9.32182L28.6423 6.42955V6.42818ZM10.3218 24.75L12.25 26.6782L9.35773 29.5705L7.42955 27.6423L10.3218 24.75ZM34 16.6364V19.3636H29.9091V16.6364H34ZM8.09091 16.6364V19.3636H4V16.6364H8.09091Z" fill="#DECF13"/>
</svg>
