<svg width="37" height="37" viewBox="0 0 37 37" fill="none" xmlns="http://www.w3.org/2000/svg">
<path d="M13.6664 6.05182C12.6166 8.33054 12.2905 10.8762 12.7319 13.346C13.1733 15.8157 14.361 18.0909 16.1351 19.8649C17.9091 21.639 20.1843 22.8267 22.654 23.2681C25.1238 23.7095 27.6695 23.3834 29.9482 22.3336C28.5927 28.4373 23.1477 33 16.6364 33C9.105 33 3 26.895 3 19.3636C3 12.8523 7.56273 7.40727 13.6664 6.05182ZM25.0418 6.12409L26.1818 6.40909V7.77273L25.0418 8.05773C24.5624 8.17764 24.1245 8.42557 23.775 8.77504C23.4256 9.12451 23.1776 9.56237 23.0577 10.0418L22.7727 11.1818H21.4091L21.1241 10.0418C21.0042 9.56237 20.7562 9.12451 20.4068 8.77504C20.0573 8.42557 19.6195 8.17764 19.14 8.05773L18 7.77273V6.40909L19.14 6.12409C19.6192 6.00397 20.0568 5.75593 20.406 5.40648C20.7552 5.05703 21.0029 4.61928 21.1227 4.14L21.4091 3H22.7727L23.0577 4.14C23.1776 4.61945 23.4256 5.05731 23.775 5.40678C24.1245 5.75625 24.5624 6.00418 25.0418 6.12409ZM31.86 12.9423L33 13.2273V14.5909L31.86 14.8759C31.3805 14.9958 30.9427 15.2438 30.5932 15.5932C30.2438 15.9427 29.9958 16.3805 29.8759 16.86L29.5909 18H28.2273L27.9423 16.86C27.8224 16.3805 27.5744 15.9427 27.225 15.5932C26.8755 15.2438 26.4376 14.9958 25.9582 14.8759L24.8182 14.5909V13.2273L25.9582 12.9423C26.4376 12.8224 26.8755 12.5744 27.225 12.225C27.5744 11.8755 27.8224 11.4376 27.9423 10.9582L28.2273 9.81818H29.5909L29.8759 10.9582C29.9958 11.4376 30.2438 11.8755 30.5932 12.225C30.9427 12.5744 31.3805 12.8224 31.86 12.9423Z" fill="#8899AA"/>
</svg>
