<svg width="37" height="37" viewBox="0 0 37 37" fill="none" xmlns="http://www.w3.org/2000/svg">
<path d="M24.9124 19.754C23.3085 19.754 21.7702 19.131 20.6361 18.022C19.502 16.9131 18.8648 15.4091 18.8648 13.8408C18.8648 12.2725 19.502 10.7685 20.6361 9.65956C21.7702 8.55063 23.3085 7.92764 24.9124 7.92764C26.5163 7.92764 28.0545 8.55063 29.1886 9.65956C30.3228 10.7685 30.9599 12.2725 30.9599 13.8408C30.9599 15.4091 30.3228 16.9131 29.1886 18.022C28.0545 19.131 26.5163 19.754 24.9124 19.754ZM23.9045 3H25.9203V5.95658H23.9045V3ZM23.9045 21.725H25.9203V24.6816H23.9045V21.725ZM16.3601 6.87214L17.7853 5.4786L19.9231 7.56891L18.4979 8.96244L16.3601 6.87214ZM29.9016 20.1127L31.3268 18.7192L33.4646 20.8095L32.0394 22.203L29.9016 20.1127ZM32.0394 5.47762L33.4646 6.87214L31.3268 8.96244L29.9016 7.56891L32.0394 5.4786V5.47762ZM18.4979 18.7192L19.9231 20.1127L17.7853 22.203L16.3601 20.8095L18.4979 18.7192ZM35.9996 12.8553V14.8263H32.9758V12.8553H35.9996ZM16.849 12.8553V14.8263H13.8252V12.8553H16.849Z" fill="#DECF13"/>
<path d="M12.9244 32.5495C10.9356 32.4395 9.01057 31.8535 7.33444 30.8479C5.65831 29.8423 4.2875 28.451 3.35386 26.8076C2.42022 25.1643 1.95516 23.3243 2.00341 21.4645C2.05166 19.6048 2.61159 17.788 3.62936 16.1888C4.64713 14.5896 6.08849 13.2618 7.8148 12.3332C9.54111 11.4046 11.4943 10.9063 13.4865 10.8864C15.4787 10.8664 17.4429 11.3255 19.1901 12.2193C20.9373 13.1132 22.4088 14.4118 23.4631 15.9903C25.734 16.058 27.8907 16.936 29.4892 18.4436C31.0878 19.9511 32.0066 21.9735 32.0564 24.0945C32.1063 26.2154 31.2835 28.2735 29.7574 29.8452C28.2313 31.4168 26.1179 32.3824 23.8524 32.5431V32.5673H12.9244V32.5495Z" fill="#A5C8D9"/>
</svg>
