<svg width="37" height="37" viewBox="0 0 37 37" fill="none" xmlns="http://www.w3.org/2000/svg">
<path d="M22.3618 3C21.6274 4.59424 21.3992 6.37526 21.708 8.10315C22.0168 9.83104 22.8478 11.4228 24.089 12.6639C25.3301 13.9051 26.9219 14.7361 28.6498 15.0449C30.3776 15.3537 32.1587 15.1255 33.7529 14.3911C32.8046 18.6613 28.9952 21.8535 24.4397 21.8535C19.1706 21.8535 14.8994 17.5823 14.8994 12.3132C14.8994 7.75773 18.0916 3.9483 22.3618 3Z" fill="#8899AA"/>
<path d="M12.5425 32.9825C10.6232 32.8764 8.76546 32.3109 7.14794 31.3404C5.53041 30.37 4.20753 29.0273 3.30653 27.4414C2.40553 25.8555 1.95672 24.0798 2.00329 22.2851C2.04985 20.4904 2.59021 18.7371 3.5724 17.1938C4.55458 15.6505 5.94555 14.3692 7.6115 13.473C9.27746 12.5768 11.1624 12.096 13.0849 12.0768C15.0074 12.0575 16.9029 12.5005 18.5891 13.3631C20.2752 14.2257 21.6953 15.479 22.7127 17.0022C24.9042 17.0676 26.9855 17.9149 28.5281 19.3698C30.0708 20.8246 30.9575 22.7763 31.0056 24.8231C31.0537 26.8699 30.2597 28.856 28.7869 30.3727C27.3141 31.8894 25.2747 32.8212 23.0884 32.9763V32.9997H12.5425V32.9825Z" fill="#C6C6C6"/>
</svg>
