<svg width="37" height="37" viewBox="0 0 37 37" fill="none" xmlns="http://www.w3.org/2000/svg">
<path d="M14.3569 29.5044C12.1073 29.38 9.92983 28.7172 8.03392 27.5797C6.13801 26.4423 4.58745 24.8684 3.53138 23.0096C2.47532 21.1508 1.94928 19.0695 2.00385 16.9659C2.05843 14.8624 2.69179 12.8073 3.84301 10.9984C4.99423 9.18952 6.62459 7.68764 8.57726 6.63724C10.5299 5.58684 12.7392 5.02326 14.9926 5.0007C17.2461 4.97815 19.4678 5.49738 21.4441 6.50845C23.4205 7.51952 25.0849 8.98842 26.2774 10.7739C28.8461 10.8505 31.2856 11.8436 33.0937 13.5488C34.9019 15.2541 35.9412 17.5417 35.9976 19.9407C36.054 22.3398 35.1233 24.6678 33.3971 26.4455C31.6708 28.2232 29.2804 29.3154 26.7178 29.4972V29.5246H14.3569V29.5044Z" fill="#A5C8D9"/>
</svg>
