<svg width="37" height="37" viewBox="0 0 37 37" fill="none" xmlns="http://www.w3.org/2000/svg">
<path d="M13.3569 30.5044C11.1073 30.38 8.92983 29.7172 7.03392 28.5797C5.13801 27.4423 3.58745 25.8684 2.53138 24.0096C1.47532 22.1508 0.949276 20.0695 1.00385 17.9659C1.05843 15.8624 1.69179 13.8073 2.84301 11.9984C3.99423 10.1895 5.62459 8.68764 7.57726 7.63724C9.52994 6.58684 11.7392 6.02326 13.9926 6.0007C16.2461 5.97815 18.4678 6.49738 20.4441 7.50845C22.4205 8.51952 24.0849 9.98842 25.2774 11.7739C27.8461 11.8505 30.2856 12.8436 32.0937 14.5488C33.9019 16.2541 34.9412 18.5417 34.9976 20.9407C35.054 23.3398 34.1233 25.6678 32.3971 27.4455C30.6708 29.2232 28.2804 30.3154 25.7178 30.4972V30.5246H13.3569V30.5044Z" fill="#C6C6C6"/>
</svg>
