<svg width="37" height="37" viewBox="0 0 37 37" fill="none" xmlns="http://www.w3.org/2000/svg">
<path d="M21.086 21.9852C19.4318 21.8939 17.8308 21.4074 16.4367 20.5725C15.0427 19.7377 13.9025 18.5826 13.126 17.2183C12.3495 15.854 11.9627 14.3264 12.0028 12.7825C12.043 11.2386 12.5087 9.73024 13.3552 8.40258C14.2016 7.07493 15.4004 5.97261 16.8362 5.20166C18.272 4.43072 19.8965 4.01707 21.5534 4.00052C23.2103 3.98396 24.844 4.36505 26.2972 5.10714C27.7503 5.84922 28.9742 6.92733 29.851 8.23777C31.7398 8.29399 33.5335 9.02291 34.863 10.2745C36.1926 11.5261 36.9567 13.205 36.9982 14.9659C37.0397 16.7267 36.3554 18.4353 35.0861 19.7401C33.8168 21.0448 32.0591 21.8464 30.1748 21.9799V22H21.086V21.9852Z" fill="#648FA4"/>
<path d="M6.80218 29.0584C8.34758 29.9892 10.0851 30.5871 11.891 30.817V30.9227H12.891H23.7856H24.7856V30.7876C26.9277 30.4399 28.9048 29.4302 30.3913 27.8934C32.0924 26.1347 33.0205 23.8185 32.9643 21.4192C32.908 19.0201 31.8727 16.746 30.0927 15.0607C28.4363 13.4925 26.2518 12.543 23.9389 12.3599C22.8177 10.8226 21.3284 9.55841 19.5944 8.66783C17.706 7.69797 15.5873 7.20177 13.4413 7.22333C11.2953 7.24489 9.18815 7.78357 7.32184 8.79144C5.45527 9.79946 3.8891 11.2449 2.77979 12.9948C1.67014 14.7452 1.05659 16.7392 1.00373 18.7846C0.950868 20.83 1.46071 22.8505 2.47942 24.6506C3.49781 26.4501 4.98864 27.9661 6.80218 29.0584Z" fill="#A5C8D9" stroke="#E7E7E7" stroke-width="2"/>
</svg>
