<svg width="37" height="37" viewBox="0 0 37 37" fill="none" xmlns="http://www.w3.org/2000/svg">
<path d="M21.086 22.9852C19.4318 22.8939 17.8308 22.4074 16.4367 21.5725C15.0427 20.7377 13.9025 19.5826 13.126 18.2183C12.3495 16.854 11.9627 15.3264 12.0028 13.7825C12.043 12.2386 12.5087 10.7302 13.3552 9.40258C14.2016 8.07493 15.4004 6.97261 16.8362 6.20166C18.272 5.43072 19.8965 5.01707 21.5534 5.00052C23.2103 4.98396 24.844 5.36505 26.2972 6.10714C27.7503 6.84922 28.9742 7.92733 29.851 9.23777C31.7398 9.29399 33.5335 10.0229 34.863 11.2745C36.1926 12.5261 36.9567 14.205 36.9982 15.9659C37.0397 17.7267 36.3554 19.4353 35.0861 20.7401C33.8168 22.0448 32.0591 22.8464 30.1748 22.9799V23H21.086V22.9852Z" fill="#8899AA"/>
<path d="M6.80218 30.0584C8.34758 30.9892 10.0851 31.5871 11.891 31.817V31.9227H12.891H23.7856H24.7856V31.7876C26.9277 31.4399 28.9048 30.4302 30.3913 28.8934C32.0924 27.1347 33.0205 24.8185 32.9643 22.4192C32.908 20.0201 31.8727 17.746 30.0927 16.0607C28.4363 14.4925 26.2518 13.543 23.9389 13.3599C22.8177 11.8226 21.3284 10.5584 19.5944 9.66783C17.706 8.69797 15.5873 8.20177 13.4413 8.22333C11.2953 8.24489 9.18815 8.78357 7.32184 9.79144C5.45527 10.7995 3.8891 12.2449 2.77979 13.9948C1.67014 15.7452 1.05659 17.7392 1.00373 19.7846C0.950868 21.83 1.46071 23.8505 2.47942 25.6506C3.49781 27.4501 4.98864 28.9661 6.80218 30.0584Z" fill="#C6C6C6" stroke="#E7E7E7" stroke-width="2"/>
</svg>
