<svg width="37" height="37" viewBox="0 0 37 37" fill="none" xmlns="http://www.w3.org/2000/svg">
<path d="M21.086 20.9852C19.4318 20.8939 17.8308 20.4074 16.4367 19.5725C15.0427 18.7377 13.9025 17.5826 13.126 16.2183C12.3495 14.854 11.9627 13.3264 12.0028 11.7825C12.043 10.2386 12.5087 8.73024 13.3552 7.40258C14.2016 6.07493 15.4004 4.97261 16.8362 4.20166C18.272 3.43072 19.8965 3.01707 21.5534 3.00052C23.2103 2.98396 24.844 3.36505 26.2972 4.10714C27.7503 4.84922 28.9742 5.92733 29.851 7.23777C31.7398 7.29399 33.5335 8.02291 34.863 9.27449C36.1926 10.5261 36.9567 12.205 36.9982 13.9659C37.0397 15.7267 36.3554 17.4353 35.0861 18.7401C33.8168 20.0448 32.0591 20.8464 30.1748 20.9799V21H21.086V20.9852Z" fill="#648FA4"/>
<path d="M6.80218 28.0584C8.34758 28.9892 10.0851 29.5871 11.891 29.817V29.9227H12.891H23.7856H24.7856V29.7876C26.9277 29.4399 28.9048 28.4302 30.3913 26.8934C32.0924 25.1347 33.0205 22.8185 32.9643 20.4192C32.908 18.0201 31.8727 15.746 30.0927 14.0607C28.4363 12.4925 26.2518 11.543 23.9389 11.3599C22.8177 9.82257 21.3284 8.55841 19.5944 7.66783C17.706 6.69797 15.5873 6.20177 13.4413 6.22333C11.2953 6.24489 9.18815 6.78357 7.32184 7.79144C5.45527 8.79946 3.8891 10.2449 2.77979 11.9948C1.67014 13.7452 1.05659 15.7392 1.00373 17.7846C0.950868 19.83 1.46071 21.8505 2.47942 23.6506C3.49781 25.4501 4.98864 26.9661 6.80218 28.0584Z" fill="#A5C8D9" stroke="#E7E7E7" stroke-width="2"/>
<path d="M7.1992 22.9961L2.7998 29.7952" stroke="#6799B2" stroke-width="3" stroke-linecap="round"/>
<path d="M22.7969 22.1973L18.3975 28.9963" stroke="#6799B2" stroke-width="3" stroke-linecap="round"/>
<path d="M14.7978 26.1963L10.3984 32.9954" stroke="#6799B2" stroke-width="3" stroke-linecap="round"/>
</svg>
