<svg width="37" height="37" viewBox="0 0 37 37" fill="none" xmlns="http://www.w3.org/2000/svg">
<path d="M24.9133 17.7539C23.3094 17.7539 21.7712 17.1309 20.637 16.0219C19.5029 14.913 18.8658 13.409 18.8658 11.8407C18.8658 10.2725 19.5029 8.76845 20.637 7.65952C21.7712 6.55059 23.3094 5.92761 24.9133 5.92761C26.5172 5.92761 28.0554 6.55059 29.1895 7.65952C30.3237 8.76845 30.9608 10.2725 30.9608 11.8407C30.9608 13.409 30.3237 14.913 29.1895 16.0219C28.0554 17.1309 26.5172 17.7539 24.9133 17.7539ZM23.9054 1H25.9212V3.95656H23.9054V1ZM23.9054 19.7249H25.9212V22.6815H23.9054V19.7249ZM16.3611 4.87211L17.7863 3.47859L19.9241 5.56888L18.4989 6.9624L16.3611 4.87211ZM29.9025 18.1126L31.3277 16.7191L33.4655 18.8094L32.0403 20.2029L29.9025 18.1126ZM32.0403 3.4776L33.4655 4.87211L31.3277 6.9624L29.9025 5.56888L32.0403 3.47859V3.4776ZM18.4989 16.7191L19.9241 18.1126L17.7863 20.2029L16.3611 18.8094L18.4989 16.7191ZM36.0004 10.8552V12.8263H32.9766V10.8552H36.0004ZM16.8499 10.8552V12.8263H13.8262V10.8552H16.8499Z" fill="#DECF13"/>
<path d="M12.9244 30.5484C10.9356 30.4384 9.01052 29.8524 7.33441 28.8468C5.65829 27.8412 4.28749 26.4499 3.35385 24.8065C2.42022 23.1632 1.95516 21.3232 2.00341 19.4635C2.05166 17.6038 2.61159 15.787 3.62935 14.1878C4.64711 12.5886 6.08846 11.2608 7.81476 10.3322C9.54106 9.40357 11.4942 8.90533 13.4864 8.88539C15.4786 8.86545 17.4428 9.32448 19.19 10.2183C20.9372 11.1122 22.4087 12.4108 23.463 13.9893C25.7338 14.057 27.8905 14.935 29.4891 16.4425C31.0876 17.9501 32.0064 19.9725 32.0562 22.0934C32.1061 24.2144 31.2833 26.2724 29.7572 27.8441C28.2311 29.4157 26.1178 30.3813 23.8523 30.542V30.5662H12.9244V30.5484Z" fill="#A5C8D9"/>
<path d="M9.19177 24.9717L4.79688 31.7638" stroke="#6799B2" stroke-width="3" stroke-linecap="round"/>
<path d="M16.7826 28.168L12.3877 34.9601" stroke="#6799B2" stroke-width="3" stroke-linecap="round"/>
<path d="M24.7738 24.1738L20.3789 30.9659" stroke="#6799B2" stroke-width="3" stroke-linecap="round"/>
</svg>
