<svg width="37" height="38" viewBox="0 0 37 38" fill="none" xmlns="http://www.w3.org/2000/svg">
<path d="M23.4624 2C22.728 3.59424 22.4998 5.37526 22.8086 7.10315C23.1174 8.83104 23.9484 10.4228 25.1896 11.6639C26.4307 12.9051 28.0224 13.7361 29.7503 14.0449C31.4782 14.3537 33.2593 14.1255 34.8535 13.3911C33.9052 17.6613 30.0958 20.8535 25.5403 20.8535C20.2712 20.8535 16 16.5823 16 11.3132C16 6.75773 19.1922 2.9483 23.4624 2Z" fill="#8899AA"/>
<path d="M12.9356 31.5784C10.9447 31.4683 9.01771 30.8817 7.33987 29.8751C5.66204 28.8685 4.28983 27.4757 3.35524 25.8307C2.42065 24.1856 1.95511 22.3438 2.00341 20.4821C2.05171 18.6205 2.61222 16.8019 3.63102 15.201C4.64983 13.6002 6.09265 12.2711 7.82072 11.3415C9.54879 10.4119 11.504 9.91316 13.4982 9.8932C15.4924 9.87324 17.4586 10.3327 19.2076 11.2275C20.9566 12.1223 22.4296 13.4222 23.4849 15.0023C25.7582 15.0701 27.917 15.949 29.5172 17.4581C31.1174 18.9672 32.0371 20.9917 32.087 23.1148C32.137 25.2379 31.3133 27.2981 29.7856 28.8713C28.258 30.4445 26.1425 31.4111 23.8746 31.572V31.5963H12.9356V31.5784Z" fill="#C6C6C6"/>
<path d="M9.1992 25.9961L4.7998 32.7952" stroke="#4C6176" stroke-width="3" stroke-linecap="round"/>
<path d="M16.7978 29.1963L12.3984 35.9954" stroke="#4C6176" stroke-width="3" stroke-linecap="round"/>
<path d="M24.7969 25.1973L20.3975 31.9963" stroke="#4C6176" stroke-width="3" stroke-linecap="round"/>
</svg>
