<svg width="37" height="37" viewBox="0 0 37 37" fill="none" xmlns="http://www.w3.org/2000/svg">
<path d="M24.2392 18.2607C22.6826 18.2607 21.1896 17.656 20.0889 16.5797C18.9881 15.5034 18.3698 14.0437 18.3698 12.5216C18.3698 10.9995 18.9881 9.53976 20.0889 8.46348C21.1896 7.3872 22.6826 6.78255 24.2392 6.78255C25.7959 6.78255 27.2889 7.3872 28.3896 8.46348C29.4903 9.53976 30.1087 10.9995 30.1087 12.5216C30.1087 14.0437 29.4903 15.5034 28.3896 16.5797C27.2889 17.656 25.7959 18.2607 24.2392 18.2607ZM23.261 2H25.2175V4.86953H23.261V2ZM23.261 20.1737H25.2175V23.0432H23.261V20.1737ZM15.9388 5.75813L17.3221 4.40562L19.3969 6.43438L18.0137 7.78688L15.9388 5.75813ZM29.0816 18.6088L30.4648 17.2563L32.5397 19.2851L31.1564 20.6376L29.0816 18.6088ZM31.1564 4.40466L32.5397 5.75813L30.4648 7.78688L29.0816 6.43438L31.1564 4.40562V4.40466ZM18.0137 17.2563L19.3969 18.6088L17.3221 20.6376L15.9388 19.2851L18.0137 17.2563ZM35 11.5651V13.4781H32.0652V11.5651H35ZM16.4133 11.5651V13.4781H13.4785V11.5651H16.4133Z" fill="#DECF13"/>
<path d="M12.6028 30.6782C10.6725 30.5715 8.80415 30.0028 7.17737 29.0268C5.5506 28.0508 4.22015 26.7004 3.314 25.1054C2.40785 23.5105 1.95648 21.7246 2.00331 19.9197C2.05013 18.1147 2.59359 16.3514 3.58139 14.7993C4.56919 13.2471 5.96811 11.9585 7.64359 11.0572C9.31907 10.1559 11.2147 9.6723 13.1483 9.65295C15.0818 9.63359 16.9882 10.0791 18.6839 10.9467C20.3797 11.8142 21.8079 13.0746 22.8311 14.6066C25.0352 14.6723 27.1284 15.5245 28.6798 16.9876C30.2313 18.4508 31.123 20.4137 31.1715 22.4722C31.2199 24.5307 30.4213 26.5282 28.9401 28.0535C27.4589 29.5789 25.4078 30.516 23.209 30.672V30.6956H12.6028V30.6782Z" fill="#A5C8D9"/>
<path d="M8.98036 25.2666L4.71484 31.8588" stroke="#6799B2" stroke-width="2" stroke-linecap="round"/>
<path d="M16.3475 28.3691L12.082 34.9613" stroke="#6799B2" stroke-width="2" stroke-linecap="round"/>
<path d="M24.1024 24.4912L19.8369 31.0834" stroke="#6799B2" stroke-width="2" stroke-linecap="round"/>
<path d="M16.1093 19.9673L10.6302 25.6664L17.9839 25.609L11.5334 32.5674" stroke="#DEB113" stroke-width="2" stroke-linecap="round"/>
</svg>
