<svg width="37" height="37" viewBox="0 0 37 37" fill="none" xmlns="http://www.w3.org/2000/svg">
<path d="M23.5582 1C22.8205 2.60135 22.5913 4.39032 22.9015 6.12591C23.2117 7.8615 24.0463 9.46034 25.293 10.707C26.5397 11.9537 28.1386 12.7884 29.8742 13.0986C31.6098 13.4088 33.3987 13.1796 35.0001 12.4419C34.0475 16.7312 30.2211 19.9376 25.6453 19.9376C20.3527 19.9376 16.0625 15.6473 16.0625 10.3547C16.0625 5.77895 19.2689 1.95253 23.5582 1Z" fill="#8899AA"/>
<path d="M12.9843 30.7102C10.9846 30.5997 9.049 30.0105 7.36368 28.9994C5.67837 27.9883 4.30004 26.5892 3.36128 24.9369C2.42252 23.2845 1.95491 21.4344 2.00342 19.5645C2.05194 17.6946 2.61495 15.8678 3.63829 14.2599C4.66164 12.6519 6.1109 11.3168 7.84668 10.3831C9.58245 9.44939 11.5463 8.94841 13.5495 8.92836C15.5526 8.90831 17.5275 9.36986 19.2843 10.2686C21.0411 11.1674 22.5207 12.4731 23.5808 14.0602C25.8641 14.1283 28.0326 15.0112 29.6399 16.527C31.2472 18.0428 32.1711 20.0763 32.2212 22.2089C32.2714 24.3415 31.4441 26.4108 29.9096 27.9911C28.3751 29.5713 26.2501 30.5422 23.9722 30.7038V30.7282H12.9843V30.7102Z" fill="#C6C6C6"/>
<path d="M9.23151 25.1035L4.8125 31.9329" stroke="#4C6176" stroke-width="3" stroke-linecap="round"/>
<path d="M16.8633 28.3174L12.4443 35.1468" stroke="#4C6176" stroke-width="3" stroke-linecap="round"/>
<path d="M24.8985 24.3008L20.4795 31.1302" stroke="#4C6176" stroke-width="3" stroke-linecap="round"/>
<path d="M15.772 19.8859L10.262 25.6172L17.6572 25.5595L11.1703 32.5573" stroke="#DEB113" stroke-width="2" stroke-linecap="round"/>
</svg>
