<svg width="37" height="37" viewBox="0 0 37 37" fill="none" xmlns="http://www.w3.org/2000/svg">
<path d="M19.9333 5.41885C19.9333 5.04255 19.7838 4.68166 19.5177 4.41557C19.2516 4.14949 18.8908 4 18.5145 4C18.1381 4 17.7773 4.14949 17.5112 4.41557C17.2451 4.68166 17.0956 5.04255 17.0956 5.41885V6.78379L16.1677 6.29287C16.003 6.20576 15.8227 6.15195 15.6372 6.1345C15.4517 6.11706 15.2646 6.13632 15.0865 6.1912C14.9084 6.24607 14.7429 6.33548 14.5994 6.45432C14.4559 6.57316 14.3372 6.71911 14.2501 6.88382C14.163 7.04853 14.1092 7.22879 14.0917 7.4143C14.0743 7.59981 14.0935 7.78694 14.1484 7.965C14.2033 8.14306 14.2927 8.30858 14.4115 8.45209C14.5304 8.5956 14.6763 8.71429 14.841 8.8014L17.0956 9.99324V12.6919C16.0967 12.9501 15.1872 13.476 14.465 14.2129L12.1268 12.8622L12.2218 10.3139C12.2358 9.93778 12.0997 9.57154 11.8436 9.29574C11.5875 9.01994 11.2323 8.85718 10.8562 8.84326C10.4801 8.82933 10.1138 8.96539 9.83804 9.2215C9.56224 9.47761 9.39947 9.83279 9.38555 10.2089L9.34724 11.2574L8.16534 10.5764C8.00382 10.4765 7.82388 10.41 7.6362 10.3809C7.44851 10.3518 7.25689 10.3607 7.0727 10.407C6.88851 10.4534 6.7155 10.5362 6.56392 10.6506C6.41234 10.7651 6.28528 10.9088 6.19028 11.0732C6.09527 11.2377 6.03425 11.4196 6.01083 11.608C5.98741 11.7965 6.00207 11.9878 6.05394 12.1705C6.10581 12.3532 6.19383 12.5236 6.3128 12.6717C6.43176 12.8198 6.57923 12.9424 6.74648 13.0324L7.92839 13.7149L7.03877 14.2739C6.72848 14.4778 6.51049 14.7953 6.43159 15.1581C6.35268 15.5209 6.41915 15.9002 6.61672 16.2146C6.8143 16.529 7.12724 16.7534 7.48838 16.8396C7.84953 16.9259 8.2301 16.8672 8.54843 16.676L10.7079 15.3196L13.0448 16.6689C12.7687 17.6632 12.7687 18.7139 13.0448 19.7081L10.7079 21.056L8.54843 19.701C8.2301 19.5099 7.84953 19.4512 7.48838 19.5374C7.12724 19.6237 6.8143 19.8481 6.61672 20.1625C6.41915 20.4768 6.35268 20.8561 6.43159 21.219C6.51049 21.5818 6.72848 21.8992 7.03877 22.1032L7.92839 22.6622L6.74648 23.3432C6.58503 23.4364 6.44351 23.5604 6.33 23.7083C6.21649 23.8562 6.13321 24.0249 6.08493 24.205C6.03664 24.385 6.02429 24.5728 6.04857 24.7576C6.07286 24.9424 6.13331 25.1206 6.22647 25.2821C6.31964 25.4435 6.44369 25.5851 6.59154 25.6986C6.7394 25.8121 6.90817 25.8954 7.08821 25.9436C7.26825 25.9919 7.45604 26.0043 7.64085 25.98C7.82566 25.9557 8.00388 25.8953 8.16534 25.8021L9.34582 25.1196L9.38555 26.1696C9.39254 26.3558 9.43614 26.5389 9.51386 26.7082C9.59159 26.8776 9.70191 27.03 9.83854 27.1568C9.97517 27.2835 10.1354 27.3821 10.3102 27.4469C10.4849 27.5117 10.6707 27.5415 10.8569 27.5345C11.0431 27.5275 11.2262 27.4839 11.3956 27.4062C11.5649 27.3285 11.7174 27.2182 11.8441 27.0815C11.9708 26.9449 12.0694 26.7847 12.1343 26.6099C12.1991 26.4352 12.2288 26.2494 12.2218 26.0632L12.1268 23.5149L14.465 22.1642C15.1869 22.9014 16.0966 23.4273 17.0956 23.6852V26.3838L14.841 27.5757C14.5084 27.7516 14.2592 28.0525 14.1484 28.4121C14.0376 28.7717 14.0742 29.1606 14.2501 29.4933C14.426 29.8259 14.7269 30.075 15.0865 30.1859C15.4461 30.2967 15.835 30.2601 16.1677 30.0842L17.0956 29.5933V30.9582C17.0956 31.3345 17.2451 31.6954 17.5112 31.9615C17.7773 32.2276 18.1381 32.3771 18.5145 32.3771C18.8908 32.3771 19.2516 32.2276 19.5177 31.9615C19.7838 31.6954 19.9333 31.3345 19.9333 30.9582V29.5933L20.8612 30.0842C21.1939 30.2601 21.5828 30.2967 21.9424 30.1859C22.302 30.075 22.6029 29.8259 22.7788 29.4933C22.9547 29.1606 22.9913 28.7717 22.8805 28.4121C22.7697 28.0525 22.5205 27.7516 22.1879 27.5757L19.9333 26.3838V23.6852C20.9321 23.4274 21.8416 22.902 22.5639 22.1656L24.9021 23.5149L24.8071 26.0632C24.8001 26.2494 24.8298 26.4352 24.8947 26.6099C24.9595 26.7847 25.0581 26.9449 25.1848 27.0815C25.3116 27.2182 25.464 27.3285 25.6334 27.4062C25.8027 27.4839 25.9858 27.5275 26.172 27.5345C26.3582 27.5415 26.544 27.5117 26.7188 27.4469C26.8935 27.3821 27.0537 27.2835 27.1904 27.1568C27.327 27.03 27.4373 26.8776 27.515 26.7082C27.5928 26.5389 27.6364 26.3558 27.6434 26.1696L27.6817 25.1196L28.8636 25.8021C29.025 25.8967 29.2035 25.9585 29.3889 25.9839C29.5743 26.0092 29.7629 25.9976 29.9438 25.9498C30.1247 25.902 30.2944 25.8188 30.443 25.7052C30.5917 25.5915 30.7163 25.4496 30.8099 25.2875C30.9035 25.1255 30.964 24.9465 30.9882 24.761C31.0123 24.5754 30.9995 24.3869 30.9504 24.2063C30.9014 24.0257 30.8171 23.8566 30.7025 23.7088C30.5879 23.5609 30.4451 23.4371 30.2824 23.3446L29.1019 22.6636L29.9901 22.1046C30.3089 21.9044 30.535 21.5858 30.6188 21.2188C30.7027 20.8519 30.6373 20.4667 30.4371 20.148C30.2369 19.8292 29.9183 19.6031 29.5513 19.5193C29.1844 19.4355 28.7992 19.5008 28.4805 19.701L26.321 21.0575L23.9841 19.7095C24.2604 18.7148 24.2604 17.6637 23.9841 16.6689L26.321 15.3196L28.4805 16.676C28.7992 16.8762 29.1844 16.9416 29.5513 16.8578C29.9183 16.774 30.2369 16.5478 30.4371 16.2291C30.6373 15.9104 30.7027 15.5252 30.6188 15.1582C30.535 14.7913 30.3089 14.4727 29.9901 14.2725L29.1005 13.7149L30.2824 13.0324C30.4451 12.9399 30.5879 12.8162 30.7025 12.6683C30.8171 12.5204 30.9014 12.3513 30.9504 12.1707C30.9995 11.9902 31.0123 11.8017 30.9882 11.6161C30.964 11.4305 30.9035 11.2516 30.8099 11.0895C30.7163 10.9275 30.5917 10.7856 30.443 10.6719C30.2944 10.5582 30.1247 10.4751 29.9438 10.4273C29.7629 10.3794 29.5743 10.3679 29.3889 10.3932C29.2035 10.4186 29.025 10.4803 28.8636 10.575L27.6817 11.256L27.6434 10.2075C27.6364 10.0213 27.5928 9.83822 27.515 9.66883C27.4373 9.49945 27.327 9.34703 27.1904 9.22029C27.0537 9.09354 26.8935 8.99495 26.7188 8.93014C26.544 8.86532 26.3582 8.83556 26.172 8.84255C25.9858 8.84953 25.8027 8.89313 25.6334 8.97086C25.464 9.04858 25.3116 9.15891 25.1848 9.29553C25.0581 9.43216 24.9595 9.59242 24.8947 9.76715C24.8298 9.94188 24.8001 10.1277 24.8071 10.3139L24.9021 12.8622L22.5639 14.2115C21.8416 13.4751 20.9321 12.9497 19.9333 12.6919V9.99324L22.1879 8.8014C22.5205 8.62548 22.7697 8.32462 22.8805 7.965C22.9913 7.60538 22.9547 7.21647 22.7788 6.88382C22.6029 6.55117 22.302 6.30202 21.9424 6.1912C21.5828 6.08037 21.1939 6.11695 20.8612 6.29287L19.9333 6.78379V5.41885Z" fill="#4C6176"/>
</svg>
