<svg width="37" height="37" viewBox="0 0 37 37" fill="none" xmlns="http://www.w3.org/2000/svg">
<path d="M19.9118 6.41667C19.9118 6.04094 19.7626 5.68061 19.4969 5.41493C19.2312 5.14926 18.8709 5 18.4952 5C18.1194 5 17.7591 5.14926 17.4934 5.41493C17.2278 5.68061 17.0785 6.04094 17.0785 6.41667V7.7795L16.152 7.28933C15.9875 7.20236 15.8076 7.14863 15.6223 7.13121C15.4371 7.1138 15.2503 7.13303 15.0725 7.18782C14.8947 7.24261 14.7294 7.33189 14.5862 7.45054C14.4429 7.5692 14.3243 7.71492 14.2374 7.87937C14.1504 8.04383 14.0967 8.22381 14.0793 8.40904C14.0618 8.59426 14.0811 8.7811 14.1359 8.95889C14.1907 9.13668 14.2799 9.30194 14.3986 9.44522C14.5172 9.58851 14.663 9.70703 14.8274 9.794L17.0785 10.984V13.6785C16.0811 13.9363 15.173 14.4614 14.452 15.1972L12.1173 13.8485L12.2122 11.3042C12.2262 10.9286 12.0903 10.563 11.8346 10.2876C11.5789 10.0122 11.2242 9.84969 10.8487 9.83579C10.4732 9.82189 10.1075 9.95774 9.83212 10.2135C9.55675 10.4692 9.39423 10.8238 9.38033 11.1993L9.34208 12.2463L8.162 11.5663C8.00073 11.4665 7.82107 11.4001 7.63367 11.3711C7.44628 11.342 7.25495 11.3509 7.07105 11.3971C6.88714 11.4434 6.7144 11.5261 6.56305 11.6404C6.41171 11.7547 6.28484 11.8981 6.18998 12.0623C6.09512 12.2266 6.03419 12.4081 6.01081 12.5963C5.98743 12.7845 6.00207 12.9755 6.05386 13.1579C6.10565 13.3403 6.19354 13.5105 6.31231 13.6583C6.43109 13.8062 6.57834 13.9286 6.74533 14.0185L7.92542 14.6999L7.03717 15.2581C6.72735 15.4617 6.5097 15.7786 6.43092 16.1409C6.35214 16.5032 6.4185 16.8819 6.61577 17.1958C6.81305 17.5097 7.1255 17.7337 7.48609 17.8199C7.84668 17.906 8.22666 17.8473 8.5445 17.6565L10.7007 16.3022L13.0339 17.6494C12.7583 18.6421 12.7583 19.6912 13.0339 20.6839L10.7007 22.0298L8.5445 20.6768C8.22666 20.486 7.84668 20.4273 7.48609 20.5135C7.1255 20.5996 6.81305 20.8237 6.61577 21.1376C6.4185 21.4514 6.35214 21.8302 6.43092 22.1924C6.5097 22.5547 6.72735 22.8716 7.03717 23.0753L7.92542 23.6334L6.74533 24.3134C6.58413 24.4064 6.44283 24.5303 6.32949 24.6779C6.21616 24.8256 6.13301 24.9941 6.0848 25.1738C6.03658 25.3536 6.02425 25.5411 6.0485 25.7256C6.07275 25.9101 6.1331 26.0881 6.22612 26.2493C6.31914 26.4105 6.443 26.5518 6.59063 26.6651C6.73826 26.7785 6.90677 26.8616 7.08653 26.9098C7.26629 26.958 7.45379 26.9704 7.63832 26.9461C7.82285 26.9219 8.0008 26.8615 8.162 26.7685L9.34067 26.0871L9.38033 27.1354C9.38731 27.3214 9.43084 27.5041 9.50845 27.6732C9.58605 27.8424 9.69621 27.9945 9.83262 28.1211C9.96904 28.2476 10.129 28.3461 10.3035 28.4108C10.478 28.4755 10.6635 28.5052 10.8494 28.4983C11.0354 28.4913 11.2181 28.4477 11.3872 28.3701C11.5564 28.2925 11.7085 28.1824 11.8351 28.046C11.9616 27.9095 12.0601 27.7495 12.1248 27.5751C12.1895 27.4006 12.2192 27.2151 12.2122 27.0292L12.1173 24.4848L14.452 23.1362C15.1728 23.8722 16.081 24.3974 17.0785 24.6548V27.3493L14.8274 28.5393C14.4953 28.715 14.2465 29.0154 14.1359 29.3744C14.0252 29.7335 14.0617 30.1218 14.2374 30.454C14.413 30.7861 14.7134 31.0349 15.0725 31.1455C15.4315 31.2562 15.8199 31.2197 16.152 31.044L17.0785 30.5538V31.9167C17.0785 32.2924 17.2278 32.6527 17.4934 32.9184C17.7591 33.1841 18.1194 33.3333 18.4952 33.3333C18.8709 33.3333 19.2312 33.1841 19.4969 32.9184C19.7626 32.6527 19.9118 32.2924 19.9118 31.9167V30.5538L20.8383 31.044C21.1705 31.2197 21.5588 31.2562 21.9178 31.1455C22.2769 31.0349 22.5773 30.7861 22.753 30.454C22.9286 30.1218 22.9651 29.7335 22.8545 29.3744C22.7438 29.0154 22.4951 28.715 22.1629 28.5393L19.9118 27.3493V24.6548C20.909 24.3974 21.8171 23.8728 22.5383 23.1376L24.873 24.4848L24.7781 27.0292C24.7711 27.2151 24.8008 27.4006 24.8655 27.5751C24.9303 27.7495 25.0287 27.9095 25.1552 28.046C25.2818 28.1824 25.434 28.2925 25.6031 28.3701C25.7722 28.4477 25.955 28.4913 26.1409 28.4983C26.3269 28.5052 26.5124 28.4755 26.6868 28.4108C26.8613 28.3461 27.0213 28.2476 27.1577 28.1211C27.2941 27.9945 27.4043 27.8424 27.4819 27.6732C27.5595 27.5041 27.603 27.3214 27.61 27.1354L27.6482 26.0871L28.8283 26.7685C28.9895 26.863 29.1678 26.9247 29.3529 26.95C29.538 26.9753 29.7263 26.9637 29.9069 26.916C30.0875 26.8682 30.2569 26.7852 30.4053 26.6717C30.5537 26.5582 30.6782 26.4165 30.7717 26.2547C30.8651 26.0929 30.9256 25.9142 30.9497 25.729C30.9737 25.5437 30.9609 25.3555 30.912 25.1752C30.863 24.9949 30.7789 24.826 30.6644 24.6784C30.55 24.5307 30.4074 24.4072 30.245 24.3148L29.0663 23.6348L29.9532 23.0767C30.2714 22.8768 30.4972 22.5587 30.5809 22.1923C30.6646 21.8259 30.5993 21.4413 30.3994 21.1231C30.1995 20.8048 29.8814 20.579 29.515 20.4954C29.1487 20.4117 28.7641 20.4769 28.4458 20.6768L26.2897 22.0312L23.9564 20.6853C24.2323 19.6922 24.2323 18.6426 23.9564 17.6494L26.2897 16.3022L28.4458 17.6565C28.7641 17.8564 29.1487 17.9217 29.515 17.838C29.8814 17.7543 30.1995 17.5285 30.3994 17.2103C30.5993 16.892 30.6646 16.5074 30.5809 16.141C30.4972 15.7747 30.2714 15.4566 29.9532 15.2567L29.0649 14.6999L30.245 14.0185C30.4074 13.9262 30.55 13.8026 30.6644 13.6549C30.7789 13.5073 30.863 13.3385 30.912 13.1581C30.9609 12.9778 30.9737 12.7896 30.9497 12.6044C30.9256 12.4191 30.8651 12.2404 30.7717 12.0786C30.6782 11.9168 30.5537 11.7751 30.4053 11.6616C30.2569 11.5481 30.0875 11.4651 29.9069 11.4174C29.7263 11.3696 29.538 11.3581 29.3529 11.3834C29.1678 11.4087 28.9895 11.4703 28.8283 11.5648L27.6482 12.2448L27.61 11.1979C27.603 11.012 27.5595 10.8292 27.4819 10.6601C27.4043 10.491 27.2941 10.3388 27.1577 10.2122C27.0213 10.0857 26.8613 9.98725 26.6868 9.92254C26.5124 9.85782 26.3269 9.82811 26.1409 9.83508C25.955 9.84206 25.7722 9.88559 25.6031 9.9632C25.434 10.0408 25.2818 10.151 25.1552 10.2874C25.0287 10.4238 24.9303 10.5838 24.8655 10.7583C24.8008 10.9327 24.7711 11.1182 24.7781 11.3042L24.873 13.8485L22.5383 15.1958C21.8171 14.4605 20.909 13.9359 19.9118 13.6785V10.984L22.1629 9.794C22.4951 9.61835 22.7438 9.31795 22.8545 8.95889C22.9651 8.59983 22.9286 8.21151 22.753 7.87937C22.5773 7.54724 22.2769 7.29848 21.9178 7.18782C21.5588 7.07717 21.1705 7.11368 20.8383 7.28933L19.9118 7.7795V6.41667Z" fill="#4C6176"/>
</svg>
