<svg width="35" height="41" viewBox="0 0 35 41" fill="none" xmlns="http://www.w3.org/2000/svg">
<path d="M35 17.5C35 27.165 23 36.5 17.5 40.5C11 36.5 0 27.165 0 17.5C0 7.83502 7.83502 0 17.5 0C27.165 0 35 7.83502 35 17.5Z" fill="#3A3A3A"/>
<path d="M17.5 23C15.8364 23 14.2409 22.3679 13.0645 21.2426C11.8881 20.1174 11.2273 18.5913 11.2273 17C11.2273 15.4087 11.8881 13.8826 13.0645 12.7574C14.2409 11.6321 15.8364 11 17.5 11C19.1636 11 20.7591 11.6321 21.9355 12.7574C23.1119 13.8826 23.7727 15.4087 23.7727 17C23.7727 18.5913 23.1119 20.1174 21.9355 21.2426C20.7591 22.3679 19.1636 23 17.5 23ZM16.4545 6H18.5455V9H16.4545V6ZM16.4545 25H18.5455V28H16.4545V25ZM8.62932 9.929L10.1076 8.515L12.325 10.636L10.8467 12.05L8.62932 9.929ZM22.675 23.364L24.1533 21.95L26.3707 24.071L24.8924 25.485L22.675 23.364ZM24.8924 8.514L26.3707 9.929L24.1533 12.05L22.675 10.636L24.8924 8.515V8.514ZM10.8467 21.95L12.325 23.364L10.1076 25.485L8.62932 24.071L10.8467 21.95ZM29 16V18H25.8636V16H29ZM9.13636 16V18H6V16H9.13636Z" fill="#DECF13"/>
</svg>
