<svg width="35" height="41" viewBox="0 0 35 41" fill="none" xmlns="http://www.w3.org/2000/svg">
<path d="M35 17.5C35 27.165 23 36.5 17.5 40.5C11 36.5 0 27.165 0 17.5C0 7.83502 7.83502 0 17.5 0C27.165 0 35 7.83502 35 17.5Z" fill="#3A3A3A"/>
<path d="M14.822 7.238C14.0522 8.90906 13.813 10.7759 14.1367 12.5871C14.4604 14.3982 15.3314 16.0667 16.6324 17.3676C17.9333 18.6686 19.6018 19.5396 21.4129 19.8633C23.2241 20.187 25.0909 19.9478 26.762 19.178C25.768 23.654 21.775 27 17 27C11.477 27 7 22.523 7 17C7 12.225 10.346 8.232 14.822 7.238ZM23.164 7.291L24 7.5V8.5L23.164 8.709C22.8124 8.79693 22.4913 8.97875 22.235 9.23503C21.9788 9.4913 21.7969 9.8124 21.709 10.164L21.5 11H20.5L20.291 10.164C20.2031 9.8124 20.0212 9.4913 19.765 9.23503C19.5087 8.97875 19.1876 8.79693 18.836 8.709L18 8.5V7.5L18.836 7.291C19.1874 7.20291 19.5083 7.02102 19.7644 6.76475C20.0205 6.50849 20.2021 6.18748 20.29 5.836L20.5 5H21.5L21.709 5.836C21.7969 6.1876 21.9788 6.5087 22.235 6.76497C22.4913 7.02125 22.8124 7.20307 23.164 7.291ZM28.164 12.291L29 12.5V13.5L28.164 13.709C27.8124 13.7969 27.4913 13.9788 27.235 14.235C26.9788 14.4913 26.7969 14.8124 26.709 15.164L26.5 16H25.5L25.291 15.164C25.2031 14.8124 25.0212 14.4913 24.765 14.235C24.5087 13.9788 24.1876 13.7969 23.836 13.709L23 13.5V12.5L23.836 12.291C24.1876 12.2031 24.5087 12.0212 24.765 11.765C25.0212 11.5087 25.2031 11.1876 25.291 10.836L25.5 10H26.5L26.709 10.836C26.7969 11.1876 26.9788 11.5087 27.235 11.765C27.4913 12.0212 27.8124 12.2031 28.164 12.291Z" fill="#9DB1C5"/>
</svg>
