<svg width="35" height="41" viewBox="0 0 35 41" fill="none" xmlns="http://www.w3.org/2000/svg">
<path d="M35 17.5C35 27.165 23 36.5 17.5 40.5C11 36.5 0 27.165 0 17.5C0 7.83502 7.83502 0 17.5 0C27.165 0 35 7.83502 35 17.5Z" fill="#3A3A3A"/>
<path d="M22.0498 17.4667C20.8563 17.4667 19.7117 17.0031 18.8678 16.1779C18.0239 15.3528 17.5498 14.2336 17.5498 13.0667C17.5498 11.8997 18.0239 10.7806 18.8678 9.9554C19.7117 9.13024 20.8563 8.66667 22.0498 8.66667C23.2433 8.66667 24.3879 9.13024 25.2318 9.9554C26.0757 10.7806 26.5498 11.8997 26.5498 13.0667C26.5498 14.2336 26.0757 15.3528 25.2318 16.1779C24.3879 17.0031 23.2433 17.4667 22.0498 17.4667ZM21.2998 5H22.7998V7.2H21.2998V5ZM21.2998 18.9333H22.7998V21.1333H21.2998V18.9333ZM15.6861 7.88127L16.7466 6.84433L18.3373 8.39973L17.2768 9.43667L15.6861 7.88127ZM25.7623 17.7336L26.8228 16.6967L28.4136 18.2521L27.3531 19.289L25.7623 17.7336ZM27.3531 6.8436L28.4136 7.88127L26.8228 9.43667L25.7623 8.39973L27.3531 6.84433V6.8436ZM17.2768 16.6967L18.3373 17.7336L16.7466 19.289L15.6861 18.2521L17.2768 16.6967ZM30.2998 12.3333V13.8H28.0498V12.3333H30.2998ZM16.0498 12.3333V13.8H13.7998V12.3333H16.0498Z" fill="#DECF13"/>
<path d="M13.1289 26.9872C11.649 26.9054 10.2166 26.4694 8.96937 25.7211C7.72216 24.9728 6.70214 23.9375 6.00741 22.7147C5.31269 21.4919 4.96663 20.1227 5.00253 18.7389C5.03844 17.3551 5.45509 16.0032 6.21241 14.8132C6.96974 13.6232 8.04225 12.6352 9.32681 11.9442C10.6114 11.2532 12.0647 10.8825 13.5471 10.8677C15.0295 10.8528 16.4911 11.1944 17.7912 11.8595C19.0913 12.5246 20.1863 13.4909 20.9707 14.6655C22.6605 14.7159 24.2653 15.3692 25.4548 16.491C26.6443 17.6128 27.328 19.1176 27.3651 20.6958C27.4022 22.274 26.7899 23.8055 25.6543 24.9749C24.5187 26.1444 22.9462 26.8629 21.2604 26.9825V27.0005H13.1289V26.9872Z" fill="#A5C8D9"/>
</svg>
