<svg width="35" height="41" viewBox="0 0 35 41" fill="none" xmlns="http://www.w3.org/2000/svg">
<path d="M35 17.5C35 27.165 23 36.5 17.5 40.5C11 36.5 0 27.165 0 17.5C0 7.83502 7.83502 0 17.5 0C27.165 0 35 7.83502 35 17.5Z" fill="#3A3A3A"/>
<path d="M20.9324 4C20.3939 5.16912 20.2265 6.47522 20.453 7.74235C20.6795 9.00948 21.2888 10.1768 22.199 11.087C23.1092 11.9971 24.2765 12.6065 25.5436 12.833C26.8108 13.0594 28.1169 12.8921 29.286 12.3535C28.5905 15.4851 25.7969 17.826 22.4562 17.826C18.5922 17.826 15.46 14.6938 15.46 10.8298C15.46 7.48904 17.8009 4.69543 20.9324 4Z" fill="#A4B2BF"/>
<path d="M13.7312 25.9877C12.3237 25.9099 10.9614 25.4952 9.77519 24.7835C8.58899 24.0718 7.61887 23.0872 6.95813 21.9242C6.29739 20.7612 5.96826 19.459 6.00241 18.1429C6.03656 16.8268 6.43282 15.541 7.1531 14.4092C7.87338 13.2775 8.89343 12.3378 10.1151 11.6806C11.3368 11.0234 12.7191 10.6708 14.129 10.6567C15.5389 10.6426 16.9289 10.9674 18.1654 11.6C19.402 12.2326 20.4433 13.1516 21.1894 14.2687C22.7966 14.3167 24.3228 14.938 25.4541 16.0049C26.5854 17.0718 27.2357 18.5031 27.271 20.0041C27.3063 21.5051 26.724 22.9616 25.6439 24.0738C24.5639 25.1861 23.0683 25.8694 21.465 25.9832V26.0003H13.7312V25.9877Z" fill="#E0E0E0"/>
</svg>
