<svg width="35" height="41" viewBox="0 0 35 41" fill="none" xmlns="http://www.w3.org/2000/svg">
<path d="M35 17.5C35 27.165 23 36.5 17.5 40.5C11 36.5 0 27.165 0 17.5C0 7.83502 7.83502 0 17.5 0C27.165 0 35 7.83502 35 17.5Z" fill="#3A3A3A"/>
<path d="M14.6322 22.9885C13.2427 22.9174 11.8978 22.5391 10.7268 21.8898C9.55583 21.2404 8.59813 20.342 7.94585 19.2809C7.29358 18.2198 6.96867 17.0317 7.00238 15.8308C7.03609 14.63 7.42728 13.4569 8.13833 12.4242C8.84938 11.3916 9.85636 10.5343 11.0624 9.93463C12.2685 9.335 13.6331 9.01328 15.0249 9.0004C16.4167 8.98753 17.7889 9.28393 19.0096 9.86111C20.2303 10.4383 21.2583 11.2768 21.9949 12.296C23.5814 12.3398 25.0882 12.9067 26.205 13.8802C27.3218 14.8536 27.9637 16.1595 27.9985 17.529C28.0334 18.8985 27.4585 20.2274 26.3923 21.2423C25.3261 22.2571 23.8496 22.8806 22.2669 22.9844V23H14.6322V22.9885Z" fill="#E0E0E0"/>
</svg>
