<svg width="35" height="41" viewBox="0 0 35 41" fill="none" xmlns="http://www.w3.org/2000/svg">
<path d="M35 17.5C35 27.165 23 36.5 17.5 40.5C11 36.5 0 27.165 0 17.5C0 7.83502 7.83502 0 17.5 0C27.165 0 35 7.83502 35 17.5Z" fill="#3A3A3A"/>
<path d="M18.8373 20.1545C17.8114 20.0979 16.8184 19.7961 15.9538 19.2784C15.0892 18.7606 14.3821 18.0442 13.9005 17.198C13.4189 16.3519 13.179 15.4045 13.2039 14.4469C13.2288 13.4894 13.5176 12.5539 14.0426 11.7305C14.5676 10.9071 15.3111 10.2234 16.2016 9.74528C17.0921 9.26713 18.0996 9.01059 19.1272 9.00032C20.1549 8.99005 21.168 9.22641 22.0693 9.68665C22.9706 10.1469 23.7296 10.8155 24.2734 11.6283C25.4448 11.6632 26.5573 12.1152 27.3819 12.8915C28.2065 13.6677 28.6804 14.709 28.7062 15.8011C28.7319 16.8931 28.3075 17.9528 27.5202 18.7621C26.733 19.5713 25.6429 20.0684 24.4743 20.1512V20.1637H18.8373V20.1545Z" fill="#9DB1C5"/>
<path d="M10.0404 24.4386C11.0141 25.0251 12.1132 25.3954 13.2547 25.5257V25.5776H13.7547H20.5115H21.0115V25.5109C22.3542 25.3152 23.5955 24.6933 24.522 23.7355C25.5554 22.667 26.1181 21.2613 26.084 19.8065C26.0499 18.3518 25.4221 16.9714 24.3406 15.9474C23.3207 14.9819 21.9704 14.4013 20.542 14.3008C19.8543 13.3427 18.9333 12.5548 17.8572 12.0022C16.7036 11.4097 15.4089 11.1064 14.0972 11.1196C12.7854 11.1327 11.4978 11.462 10.3577 12.0777C9.21759 12.6934 8.26177 13.5759 7.58515 14.6432C6.90836 15.7108 6.53449 16.9264 6.50227 18.1728C6.47006 19.4193 6.78071 20.6508 7.40195 21.7486C8.02303 22.8461 8.93272 23.7715 10.0404 24.4386Z" fill="#E0E0E0" stroke="#3A3A3A"/>
</svg>
