<svg width="35" height="41" viewBox="0 0 35 41" fill="none" xmlns="http://www.w3.org/2000/svg">
<path d="M35 17.5C35 27.165 23 36.5 17.5 40.5C11 36.5 0 27.165 0 17.5C0 7.83502 7.83502 0 17.5 0C27.165 0 35 7.83502 35 17.5Z" fill="#3A3A3A"/>
<path d="M19.0894 19.3924C18.0416 19.3346 17.0274 19.0265 16.1443 18.4976C15.2613 17.9688 14.5391 17.2371 14.0472 16.3729C13.5554 15.5087 13.3104 14.5411 13.3358 13.5631C13.3612 12.5852 13.6562 11.6297 14.1924 10.7887C14.7286 9.94777 15.4879 9.24952 16.3974 8.76118C17.3069 8.27283 18.3359 8.01081 19.3855 8.00033C20.435 7.98984 21.4698 8.23124 22.3903 8.7013C23.3108 9.17136 24.086 9.85427 24.6415 10.6843C25.8379 10.72 26.9741 11.1817 27.8162 11.9745C28.6584 12.7673 29.1425 13.8308 29.1687 14.9462C29.195 16.0615 28.7615 17.1438 27.9575 17.9703C27.1535 18.7968 26.0401 19.3046 24.8466 19.3891V19.4018H19.0894V19.3924Z" fill="#9DB1C5"/>
<path d="M10.0591 23.8443C11.0423 24.4364 12.1489 24.815 13.2988 24.9574V25.0203H13.8988H20.7997H21.3997V24.9398C22.7606 24.7249 24.0171 24.0865 24.96 23.1117C26.0315 22.0039 26.6158 20.5453 26.5804 19.0347C26.545 17.5243 25.8932 16.0921 24.7719 15.0306C23.7248 14.0392 22.3423 13.44 20.8789 13.3276C20.1708 12.3525 19.2282 11.5507 18.1296 10.9865C16.9383 10.3747 15.6017 10.0616 14.2477 10.0752C12.8937 10.0888 11.5643 10.4287 10.3869 11.0645C9.20944 11.7004 8.2217 12.6121 7.52219 13.7155C6.82247 14.8193 6.43568 16.0765 6.40235 17.366C6.36903 18.6555 6.69043 19.9293 7.33278 21.0643C7.97494 22.1991 8.91512 23.1552 10.0591 23.8443Z" fill="#E0E0E0" stroke="#3A3A3A" stroke-width="1.2"/>
<path d="M10.2936 20.667L7.50684 24.9738" stroke="#79A2B6" stroke-width="2" stroke-linecap="round"/>
<path d="M20.3688 20.9336L17.582 25.2404" stroke="#79A2B6" stroke-width="2" stroke-linecap="round"/>
<path d="M15.107 22.6934L12.3203 27.0001" stroke="#79A2B6" stroke-width="2" stroke-linecap="round"/>
</svg>
