<svg width="35" height="41" viewBox="0 0 35 41" fill="none" xmlns="http://www.w3.org/2000/svg">
<path d="M35 17.5C35 27.165 23 36.5 17.5 40.5C11 36.5 0 27.165 0 17.5C0 7.83502 7.83502 0 17.5 0C27.165 0 35 7.83502 35 17.5Z" fill="#3A3A3A"/>
<path d="M21.8435 16.8533C20.8045 16.8533 19.808 16.4498 19.0733 15.7314C18.3386 15.013 17.9258 14.0387 17.9258 13.0227C17.9258 12.0068 18.3386 11.0325 19.0733 10.3141C19.808 9.59574 20.8045 9.19216 21.8435 9.19216C22.8825 9.19216 23.879 9.59574 24.6137 10.3141C25.3484 11.0325 25.7611 12.0068 25.7611 13.0227C25.7611 14.0387 25.3484 15.013 24.6137 15.7314C23.879 16.4498 22.8825 16.8533 21.8435 16.8533ZM21.1905 6H22.4964V7.91529H21.1905V6ZM21.1905 18.1302H22.4964V20.0455H21.1905V18.1302ZM16.3033 8.5084L17.2265 7.60565L18.6114 8.95977L17.6882 9.86251L16.3033 8.5084ZM25.0755 17.0857L25.9988 16.183L27.3837 17.5371L26.4604 18.4398L25.0755 17.0857ZM26.4604 7.60502L27.3837 8.5084L25.9988 9.86251L25.0755 8.95977L26.4604 7.60565V7.60502ZM17.6882 16.183L18.6114 17.0857L17.2265 18.4398L16.3033 17.5371L17.6882 16.183ZM29.0258 12.3843V13.6612H27.067V12.3843H29.0258ZM16.62 12.3843V13.6612H14.6611V12.3843H16.62Z" fill="#DECF13"/>
<path d="M14.0769 25.1413C12.7886 25.0701 11.5415 24.6905 10.4557 24.0391C9.36988 23.3876 8.48186 22.4863 7.87704 21.4217C7.27222 20.3571 6.97095 19.1652 7.00221 17.9604C7.03346 16.7557 7.39619 15.5788 8.05551 14.5428C8.71483 13.5068 9.64855 12.6467 10.7669 12.0451C11.8852 11.4435 13.1505 11.1207 14.441 11.1078C15.7316 11.0949 17.004 11.3923 18.1359 11.9713C19.2677 12.5504 20.221 13.3916 20.9039 14.4142C22.375 14.458 23.7722 15.0268 24.8077 16.0034C25.8433 16.98 26.4385 18.2902 26.4708 19.6641C26.5031 21.0381 25.9701 22.3714 24.9814 23.3895C23.9928 24.4076 22.6238 25.0331 21.1561 25.1372V25.1529H14.0769V25.1413Z" fill="#A5C8D9"/>
<path d="M11.6586 21.5293L8.81152 25.9293" stroke="white" stroke-width="2" stroke-linecap="round"/>
<path d="M16.5766 23.5996L13.7295 27.9996" stroke="white" stroke-width="2" stroke-linecap="round"/>
<path d="M21.7533 21.0117L18.9062 25.4117" stroke="white" stroke-width="2" stroke-linecap="round"/>
</svg>
