<svg width="35" height="41" viewBox="0 0 35 41" fill="none" xmlns="http://www.w3.org/2000/svg">
<path d="M35 17.5C35 27.165 23 36.5 17.5 40.5C11 36.5 0 27.165 0 17.5C0 7.83502 7.83502 0 17.5 0C27.165 0 35 7.83502 35 17.5Z" fill="#3A3A3A"/>
<path d="M21.8435 15.8533C20.8045 15.8533 19.808 15.4498 19.0733 14.7314C18.3386 14.013 17.9258 13.0387 17.9258 12.0227C17.9258 11.0068 18.3386 10.0325 19.0733 9.31411C19.808 8.59574 20.8045 8.19216 21.8435 8.19216C22.8825 8.19216 23.879 8.59574 24.6137 9.31411C25.3484 10.0325 25.7611 11.0068 25.7611 12.0227C25.7611 13.0387 25.3484 14.013 24.6137 14.7314C23.879 15.4498 22.8825 15.8533 21.8435 15.8533ZM21.1905 5H22.4964V6.91529H21.1905V5ZM21.1905 17.1302H22.4964V19.0455H21.1905V17.1302ZM16.3033 7.5084L17.2265 6.60565L18.6114 7.95977L17.6882 8.86251L16.3033 7.5084ZM25.0755 16.0857L25.9988 15.183L27.3837 16.5371L26.4604 17.4398L25.0755 16.0857ZM26.4604 6.60502L27.3837 7.5084L25.9988 8.86251L25.0755 7.95977L26.4604 6.60565V6.60502ZM17.6882 15.183L18.6114 16.0857L17.2265 17.4398L16.3033 16.5371L17.6882 15.183ZM29.0258 11.3843V12.6612H27.067V11.3843H29.0258ZM16.62 11.3843V12.6612H14.6611V11.3843H16.62Z" fill="#DECF13"/>
<path d="M14.0769 24.1413C12.7886 24.0701 11.5415 23.6905 10.4557 23.0391C9.36988 22.3876 8.48186 21.4863 7.87704 20.4217C7.27222 19.3571 6.97095 18.1652 7.00221 16.9604C7.03346 15.7557 7.39619 14.5788 8.05551 13.5428C8.71483 12.5068 9.64855 11.6467 10.7669 11.0451C11.8852 10.4435 13.1505 10.1207 14.441 10.1078C15.7316 10.0949 17.004 10.3923 18.1359 10.9713C19.2677 11.5504 20.221 12.3916 20.9039 13.4142C22.375 13.458 23.7722 14.0268 24.8077 15.0034C25.8433 15.98 26.4385 17.2902 26.4708 18.6641C26.5031 20.0381 25.9701 21.3714 24.9814 22.3895C23.9928 23.4076 22.6238 24.0331 21.1561 24.1372V24.1529H14.0769V24.1413Z" fill="#A5C8D9"/>
<path d="M11.6586 20.5293L8.81152 24.9293" stroke="white" stroke-width="2" stroke-linecap="round"/>
<path d="M16.5766 22.6006L13.7295 27.0006" stroke="white" stroke-width="2" stroke-linecap="round"/>
<path d="M21.7533 20.0117L18.9062 24.4117" stroke="white" stroke-width="2" stroke-linecap="round"/>
<path d="M16.4171 16.9929L12.76 20.7968L17.6683 20.7584L13.3628 25.4029" stroke="#DEB113" stroke-width="2" stroke-linecap="round"/>
</svg>
