<svg width="35" height="41" viewBox="0 0 35 41" fill="none" xmlns="http://www.w3.org/2000/svg">
<path d="M35 17.5C35 27.165 23 36.5 17.5 40.5C11 36.5 0 27.165 0 17.5C0 7.83502 7.83502 0 17.5 0C27.165 0 35 7.83502 35 17.5Z" fill="#3A3A3A"/>
<path d="M20.8898 6C20.4145 7.03171 20.2669 8.18429 20.4667 9.30249C20.6666 10.4207 21.2043 11.4508 22.0075 12.254C22.8108 13.0572 23.8408 13.595 24.959 13.7948C26.0772 13.9946 27.2298 13.847 28.2615 13.3717C27.6478 16.1352 25.1826 18.201 22.2345 18.201C18.8246 18.201 16.0605 15.4369 16.0605 12.027C16.0605 9.07895 18.1264 6.61369 20.8898 6Z" fill="#9DB1C5"/>
<path d="M14.0769 25.1413C12.7886 25.0701 11.5415 24.6905 10.4557 24.0391C9.36988 23.3876 8.48186 22.4863 7.87704 21.4217C7.27222 20.3571 6.97095 19.1652 7.00221 17.9604C7.03346 16.7557 7.39619 15.5787 8.05551 14.5428C8.71483 13.5068 9.64855 12.6467 10.7669 12.0451C11.8852 11.4435 13.1505 11.1207 14.441 11.1078C15.7316 11.0949 17.004 11.3923 18.1358 11.9713C19.2677 12.5504 20.221 13.3916 20.9039 14.4142C22.375 14.458 23.7721 15.0268 24.8077 16.0034C25.8432 16.98 26.4384 18.2902 26.4707 19.6641C26.5031 21.0381 25.97 22.3713 24.9814 23.3895C23.9928 24.4076 22.6237 25.0331 21.1561 25.1372V25.1529H14.0769V25.1413Z" fill="#E0E0E0"/>
<path d="M11.6586 21.5293L8.81152 25.9293" stroke="#79A2B6" stroke-width="2" stroke-linecap="round"/>
<path d="M16.5765 23.5996L13.7295 27.9996" stroke="#79A2B6" stroke-width="2" stroke-linecap="round"/>
<path d="M21.7533 21.0117L18.9062 25.4117" stroke="#79A2B6" stroke-width="2" stroke-linecap="round"/>
<path d="M16.4737 16.9929L12.8167 20.7968L17.7249 20.7584L13.4195 25.4029" stroke="#DEB113" stroke-width="2" stroke-linecap="round"/>
</svg>
