<svg width="35" height="41" viewBox="0 0 35 41" fill="none" xmlns="http://www.w3.org/2000/svg">
<path d="M35 17.5C35 27.165 23 36.5 17.5 40.5C11 36.5 0 27.165 0 17.5C0 7.83502 7.83502 0 17.5 0C27.165 0 35 7.83502 35 17.5Z" fill="#3A3A3A"/>
<path d="M18.8201 8C18.8201 7.73478 18.7148 7.48043 18.5272 7.29289C18.3397 7.10536 18.0853 7 17.8201 7C17.5549 7 17.3005 7.10536 17.113 7.29289C16.9255 7.48043 16.8201 7.73478 16.8201 8V8.962L16.1661 8.616C16.05 8.55461 15.923 8.51668 15.7922 8.50439C15.6615 8.49209 15.5296 8.50567 15.4041 8.54435C15.2786 8.58302 15.162 8.64604 15.0608 8.72979C14.9597 8.81355 14.876 8.91641 14.8146 9.0325C14.7532 9.14859 14.7153 9.27563 14.703 9.40638C14.6907 9.53712 14.7043 9.66901 14.743 9.79451C14.7816 9.92001 14.8447 10.0367 14.9284 10.1378C15.0122 10.2389 15.115 10.3226 15.2311 10.384L16.8201 11.224V13.126C16.1161 13.308 15.4751 13.6786 14.9661 14.198L13.3181 13.246L13.3851 11.45C13.3949 11.1849 13.299 10.9268 13.1185 10.7324C12.938 10.538 12.6877 10.4233 12.4226 10.4135C12.1575 10.4037 11.8994 10.4996 11.705 10.6801C11.5106 10.8606 11.3959 11.1109 11.3861 11.376L11.3591 12.115L10.5261 11.635C10.4123 11.5646 10.2855 11.5177 10.1532 11.4972C10.0209 11.4767 9.88585 11.483 9.75603 11.5156C9.62622 11.5483 9.50428 11.6067 9.39745 11.6873C9.29062 11.768 9.20107 11.8693 9.13411 11.9852C9.06715 12.1011 9.02414 12.2293 9.00763 12.3621C8.99113 12.4949 9.00146 12.6297 9.03802 12.7585C9.07457 12.8873 9.13661 13.0074 9.22046 13.1118C9.3043 13.2161 9.40824 13.3026 9.52612 13.366L10.3591 13.847L9.73212 14.241C9.51343 14.3847 9.35979 14.6085 9.30418 14.8642C9.24857 15.1199 9.29541 15.3872 9.43466 15.6088C9.57391 15.8304 9.79447 15.9885 10.049 16.0493C10.3035 16.1101 10.5718 16.0687 10.7961 15.934L12.3181 14.978L13.9651 15.929C13.7705 16.6297 13.7705 17.3703 13.9651 18.071L12.3181 19.021L10.7961 18.066C10.5718 17.9313 10.3035 17.8899 10.049 17.9507C9.79447 18.0115 9.57391 18.1696 9.43466 18.3912C9.29541 18.6128 9.24857 18.8801 9.30418 19.1358C9.35979 19.3915 9.51343 19.6153 9.73212 19.759L10.3591 20.153L9.52612 20.633C9.41233 20.6987 9.31258 20.7861 9.23258 20.8903C9.15258 20.9945 9.09389 21.1135 9.05986 21.2403C9.02582 21.3672 9.01712 21.4996 9.03423 21.6298C9.05135 21.7601 9.09396 21.8857 9.15962 21.9995C9.22528 22.1133 9.31271 22.213 9.41692 22.293C9.52113 22.373 9.64007 22.4317 9.76696 22.4658C9.89385 22.4998 10.0262 22.5085 10.1565 22.4914C10.2867 22.4743 10.4123 22.4317 10.5261 22.366L11.3581 21.885L11.3861 22.625C11.391 22.7563 11.4218 22.8853 11.4766 23.0046C11.5313 23.124 11.6091 23.2314 11.7054 23.3208C11.8017 23.4101 11.9146 23.4796 12.0378 23.5253C12.1609 23.5709 12.2919 23.5919 12.4231 23.587C12.5544 23.5821 12.6834 23.5513 12.8028 23.4966C12.9221 23.4418 13.0296 23.364 13.1189 23.2677C13.2082 23.1714 13.2777 23.0585 13.3234 22.9353C13.3691 22.8122 13.39 22.6813 13.3851 22.55L13.3181 20.754L14.9661 19.802C15.4749 20.3216 16.116 20.6922 16.8201 20.874V22.776L15.2311 23.616C14.9967 23.74 14.8211 23.952 14.743 24.2055C14.6649 24.4589 14.6906 24.733 14.8146 24.9675C14.9386 25.202 15.1507 25.3775 15.4041 25.4557C15.6576 25.5338 15.9317 25.508 16.1661 25.384L16.8201 25.038V26C16.8201 26.2652 16.9255 26.5196 17.113 26.7071C17.3005 26.8946 17.5549 27 17.8201 27C18.0853 27 18.3397 26.8946 18.5272 26.7071C18.7148 26.5196 18.8201 26.2652 18.8201 26V25.038L19.4741 25.384C19.7086 25.508 19.9827 25.5338 20.2361 25.4557C20.4896 25.3775 20.7016 25.202 20.8256 24.9675C20.9496 24.733 20.9754 24.4589 20.8973 24.2055C20.8192 23.952 20.6436 23.74 20.4091 23.616L18.8201 22.776V20.874C19.524 20.6923 20.165 20.322 20.6741 19.803L22.3221 20.754L22.2551 22.55C22.2502 22.6813 22.2712 22.8122 22.3168 22.9353C22.3625 23.0585 22.432 23.1714 22.5213 23.2677C22.6107 23.364 22.7181 23.4418 22.8375 23.4966C22.9569 23.5513 23.0859 23.5821 23.2171 23.587C23.3484 23.5919 23.4793 23.5709 23.6025 23.5253C23.7256 23.4796 23.8386 23.4101 23.9349 23.3208C24.0311 23.2314 24.1089 23.124 24.1637 23.0046C24.2185 22.8853 24.2492 22.7563 24.2541 22.625L24.2811 21.885L25.1141 22.366C25.2279 22.4327 25.3537 22.4762 25.4844 22.4941C25.6151 22.512 25.748 22.5038 25.8755 22.4701C26.003 22.4364 26.1225 22.3778 26.2273 22.2977C26.3321 22.2176 26.4199 22.1175 26.4859 22.0033C26.5518 21.8891 26.5945 21.763 26.6115 21.6322C26.6285 21.5014 26.6195 21.3686 26.5849 21.2413C26.5504 21.114 26.491 20.9949 26.4102 20.8906C26.3294 20.7864 26.2288 20.6992 26.1141 20.634L25.2821 20.154L25.9081 19.76C26.1328 19.6189 26.2921 19.3944 26.3512 19.1357C26.4103 18.8771 26.3642 18.6056 26.2231 18.381C26.082 18.1564 25.8575 17.997 25.5989 17.9379C25.3402 17.8788 25.0688 17.9249 24.8441 18.066L23.3221 19.022L21.6751 18.072C21.8698 17.3709 21.8698 16.6301 21.6751 15.929L23.3221 14.978L24.8441 15.934C25.0688 16.0751 25.3402 16.1212 25.5989 16.0621C25.8575 16.003 26.082 15.8436 26.2231 15.619C26.3642 15.3944 26.4103 15.1229 26.3512 14.8643C26.2921 14.6056 26.1328 14.3811 25.9081 14.24L25.2811 13.847L26.1141 13.366C26.2288 13.3008 26.3294 13.2136 26.4102 13.1094C26.491 13.0051 26.5504 12.886 26.5849 12.7587C26.6195 12.6314 26.6285 12.4986 26.6115 12.3678C26.5945 12.237 26.5518 12.1109 26.4859 11.9967C26.4199 11.8825 26.3321 11.7824 26.2273 11.7023C26.1225 11.6222 26.003 11.5636 25.8755 11.5299C25.748 11.4962 25.6151 11.488 25.4844 11.5059C25.3537 11.5238 25.2279 11.5673 25.1141 11.634L24.2811 12.114L24.2541 11.375C24.2492 11.2437 24.2185 11.1147 24.1637 10.9954C24.1089 10.876 24.0311 10.7686 23.9349 10.6792C23.8386 10.5899 23.7256 10.5204 23.6025 10.4747C23.4793 10.4291 23.3484 10.4081 23.2171 10.413C23.0859 10.4179 22.9569 10.4487 22.8375 10.5034C22.7181 10.5582 22.6107 10.636 22.5213 10.7323C22.432 10.8286 22.3625 10.9415 22.3168 11.0647C22.2712 11.1878 22.2502 11.3187 22.2551 11.45L22.3221 13.246L20.6741 14.197C20.165 13.678 19.524 13.3077 18.8201 13.126V11.224L20.4091 10.384C20.6436 10.26 20.8192 10.048 20.8973 9.79451C20.9754 9.54105 20.9496 9.26695 20.8256 9.0325C20.7016 8.79805 20.4896 8.62245 20.2361 8.54435C19.9827 8.46624 19.7086 8.49201 19.4741 8.616L18.8201 8.962V8Z" fill="#BBD5EF"/>
</svg>
