<svg width="29" height="33" viewBox="0 0 29 33" fill="none" xmlns="http://www.w3.org/2000/svg">
<path d="M16.5556 31.5843L16.553 31.5867C15.894 32.1749 15.0415 32.5 14.1582 32.5C13.2748 32.5 12.4223 32.1749 11.7633 31.5866L11.7606 31.5842C9.71584 29.7857 6.88693 27.0581 4.5731 23.948C2.24873 20.8237 0.5 17.3869 0.5 14.1582C0.5 10.5358 1.93898 7.06178 4.50038 4.50038C7.06178 1.93898 10.5358 0.5 14.1582 0.5C17.7805 0.5 21.2545 1.93898 23.8159 4.50038C26.3773 7.06178 27.8163 10.5358 27.8163 14.1582C27.8163 17.3869 26.067 20.8236 23.7424 23.948C21.4282 27.0581 18.5993 29.7857 16.5556 31.5843ZM10.4675 10.4675C9.48867 11.4463 8.93877 12.7739 8.93877 14.1582C8.93877 15.5424 9.48867 16.87 10.4675 17.8488C11.4463 18.8276 12.7739 19.3775 14.1582 19.3775C15.5424 19.3775 16.87 18.8276 17.8488 17.8488C18.8276 16.87 19.3775 15.5424 19.3775 14.1582C19.3775 12.7739 18.8276 11.4463 17.8488 10.4675C16.87 9.48867 15.5424 8.93877 14.1582 8.93877C12.7739 8.93877 11.4463 9.48867 10.4675 10.4675Z" fill="#3A3A3A" stroke="black"/>
</svg>
