<svg width="59" height="60" viewBox="0 0 59 60" fill="none" xmlns="http://www.w3.org/2000/svg">
<path d="M56.7444 3.84981V55.6445C56.7444 56.1351 56.5521 56.6056 56.2099 56.9525C55.8677 57.2994 55.4035 57.4943 54.9195 57.4943H3.82481C3.34084 57.4943 2.87669 57.2994 2.53448 56.9525C2.19226 56.6056 2 56.1351 2 55.6445V3.84981C2 3.35921 2.19226 2.8887 2.53448 2.5418C2.87669 2.19489 3.34084 2 3.82481 2H54.9195C55.4035 2 55.8677 2.19489 56.2099 2.5418C56.5521 2.8887 56.7444 3.35921 56.7444 3.84981Z" stroke="#92CA5A" stroke-width="4" stroke-linecap="round" stroke-linejoin="round"/>
<path d="M2 42.0792L23.2895 32.8301L56.7444 48.2452M41.5376 23.5811C39.9244 23.5811 38.3772 22.9314 37.2365 21.7751C36.0957 20.6187 35.4549 19.0504 35.4549 17.4151C35.4549 15.7797 36.0957 14.2114 37.2365 13.055C38.3772 11.8987 39.9244 11.249 41.5376 11.249C43.1508 11.249 44.698 11.8987 45.8387 13.055C46.9794 14.2114 47.6203 15.7797 47.6203 17.4151C47.6203 19.0504 46.9794 20.6187 45.8387 21.7751C44.698 22.9314 43.1508 23.5811 41.5376 23.5811Z" stroke="#92CA5A" stroke-width="4" stroke-linecap="round" stroke-linejoin="round"/>
</svg>
