<svg width="48" height="61" viewBox="0 0 48 61" fill="none" xmlns="http://www.w3.org/2000/svg">
<path d="M45.1622 24.1977C45.1622 36.4589 23.5811 57.4943 23.5811 57.4943C23.5811 57.4943 2 36.4589 2 24.1977C2 11.9396 11.6622 2 23.5811 2C35.5 2 45.1622 11.9396 45.1622 24.1977Z" stroke="#92CA5A" stroke-width="4"/>
<path d="M23.5811 26.6641C24.3987 26.6641 25.1829 26.3393 25.7611 25.7611C26.3393 25.1829 26.6641 24.3987 26.6641 23.5811C26.6641 22.7634 26.3393 21.9792 25.7611 21.401C25.1829 20.8229 24.3987 20.498 23.5811 20.498C22.7634 20.498 21.9792 20.8229 21.401 21.401C20.8229 21.9792 20.498 22.7634 20.498 23.5811C20.498 24.3987 20.8229 25.1829 21.401 25.7611C21.9792 26.3393 22.7634 26.6641 23.5811 26.6641Z" fill="#92CA5A" stroke="#92CA5A" stroke-width="4" stroke-linecap="round" stroke-linejoin="round"/>
</svg>
