<svg width="65" height="66" viewBox="0 0 65 66" fill="none" xmlns="http://www.w3.org/2000/svg">
<path d="M32.4135 63.6603C49.2109 63.6603 62.8271 49.8577 62.8271 32.8302C62.8271 15.8027 49.2109 2 32.4135 2C15.6161 2 2 15.8027 2 32.8302C2 49.8577 15.6161 63.6603 32.4135 63.6603Z" stroke="#92CA5A" stroke-width="4" stroke-linecap="round" stroke-linejoin="round"/>
<path d="M41.5377 22.0391C39.4543 19.9272 35.7865 18.4597 32.4136 18.3672M32.4136 18.3672C28.399 18.2562 24.8102 20.0968 24.8102 25.1221C24.8102 34.3711 41.5377 29.7466 41.5377 38.9957C41.5377 44.2707 37.0851 46.5367 32.4136 46.3672M32.4136 18.3672V12.79M23.2896 42.0787C25.2482 44.7301 28.8948 46.2408 32.4136 46.3672M32.4136 46.3672V52.8692" stroke="#92CA5A" stroke-width="4" stroke-linecap="round" stroke-linejoin="round"/>
</svg>
