<svg width="59" height="60" viewBox="0 0 59 60" fill="none" xmlns="http://www.w3.org/2000/svg">
<path d="M14.2222 14.4444H44.7778M14.2222 30H44.7778M14.2222 45.5556H32.5556M50.8889 2H8.11111C6.49034 2 4.93596 2.65555 3.7899 3.82245C2.64385 4.98934 2 6.57199 2 8.22222V51.7778C2 53.428 2.64385 55.0107 3.7899 56.1776C4.93596 57.3444 6.49034 58 8.11111 58H50.8889C52.5097 58 54.064 57.3444 55.2101 56.1776C56.3562 55.0107 57 53.428 57 51.7778V8.22222C57 6.57199 56.3562 4.98934 55.2101 3.82245C54.064 2.65555 52.5097 2 50.8889 2Z" stroke="#92CA5A" stroke-width="4" stroke-linecap="round" stroke-linejoin="round"/>
</svg>
