<svg width="59" height="67" viewBox="0 0 59 67" fill="none" xmlns="http://www.w3.org/2000/svg">
<path d="M34.7861 61.8576C34.2495 62.8132 33.4787 63.6066 32.5509 64.1581C31.6231 64.7097 30.571 65 29.5 65C28.429 65 27.3769 64.7097 26.4491 64.1581C25.5213 63.6066 24.7505 62.8132 24.2139 61.8576M47.8333 22.1626C47.8333 16.8163 45.9022 11.6875 42.4647 7.907C39.0242 4.12652 34.3583 2 29.5 2C24.6386 2 19.9758 4.12337 16.5353 7.907C13.0978 11.6875 11.1667 16.8163 11.1667 22.1626C11.1667 45.6866 2 52.4064 2 52.4064H57C57 52.4064 47.8333 45.6866 47.8333 22.1626Z" stroke="#92CA5A" stroke-width="4" stroke-linecap="round" stroke-linejoin="round"/>
</svg>
