<svg width="17" height="17" viewBox="0 0 17 17" fill="none" xmlns="http://www.w3.org/2000/svg">
<path d="M6.90997 6.91C6.68891 7.11599 6.51161 7.36439 6.38863 7.64039C6.26565 7.91638 6.19953 8.21432 6.1942 8.51643C6.18887 8.81854 6.24444 9.11863 6.3576 9.39879C6.47077 9.67896 6.6392 9.93346 6.85286 10.1471C7.06651 10.3608 7.32102 10.5292 7.60118 10.6424C7.88134 10.7555 8.18143 10.8111 8.48354 10.8058C8.78565 10.8004 9.08359 10.7343 9.35959 10.6113C9.63559 10.4884 9.88399 10.3111 10.09 10.09M7.54747 3.31C7.86346 3.27063 8.18155 3.25059 8.49997 3.25C13.75 3.25 16 8.5 16 8.5C15.6647 9.21784 15.2441 9.8927 14.7475 10.51" stroke="#C2C4B6" stroke-width="2" stroke-linecap="round" stroke-linejoin="round"/>
<path d="M4.4575 4.4575C2.96594 5.47347 1.7724 6.86894 1 8.5C1 8.5 3.25 13.75 8.5 13.75C9.93693 13.7539 11.3431 13.3338 12.5425 12.5425M1 1L16 16" stroke="#C2C4B6" stroke-width="2" stroke-linecap="round" stroke-linejoin="round"/>
</svg>
