<svg width="22" height="22" viewBox="0 0 22 22" fill="none" xmlns="http://www.w3.org/2000/svg">
<path d="M8.88013 8.88C8.58538 9.15465 8.34897 9.48585 8.185 9.85385C8.02104 10.2218 7.93287 10.6191 7.92576 11.0219C7.91865 11.4247 7.99275 11.8248 8.14364 12.1984C8.29452 12.5719 8.5191 12.9113 8.80397 13.1962C9.08885 13.481 9.42818 13.7056 9.80174 13.8565C10.1753 14.0074 10.5754 14.0815 10.9782 14.0744C11.381 14.0673 11.7783 13.9791 12.1463 13.8151C12.5143 13.6512 12.8455 13.4147 13.1201 13.12M9.73013 4.08C10.1514 4.02751 10.5756 4.00079 11.0001 4C18.0001 4 21.0001 11 21.0001 11C20.553 11.9571 19.9923 12.8569 19.3301 13.68" stroke="#C2C4B6" stroke-width="2" stroke-linecap="round" stroke-linejoin="round"/>
<path d="M5.61 5.61C3.62125 6.96462 2.02987 8.82526 1 11C1 11 4 18 11 18C12.9159 18.0051 14.7908 17.4451 16.39 16.39M1 1L21 21" stroke="#C2C4B6" stroke-width="2" stroke-linecap="round" stroke-linejoin="round"/>
</svg>
