<svg width="71" height="38" viewBox="0 0 71 38" fill="none" xmlns="http://www.w3.org/2000/svg">
<path d="M27.7361 13.7419L16.3126 36.7353H21.8779V36.1495L35.7911 20.9182L40.3312 22.9686L47.0681 14.0349L53.2192 20.7718L54.9767 18.5749L48.0933 8.03021L45.4571 12.1309L43.6996 7.7373L40.6241 13.5955L39.5989 10.9593L35.9375 18.5749L33.4478 14.7671L30.3723 18.5749L27.7361 13.7419Z" fill="#A9E18F" stroke="#A9E18F"/>
<path d="M22.3173 35.7095V36.7346H69.7686L57.027 16.6704L53.3656 20.7711L47.2146 14.0342L40.1847 22.8215L35.9375 20.7711L22.3173 35.7095Z" fill="#52B350" stroke="#52B350"/>
<path d="M29.661 10.7173L27.7549 13.662L30.3942 18.5207L33.4733 14.6926L35.966 18.5207L39.6317 10.8646L40.8047 13.5148L43.7373 7.62547L45.3502 12.1897L48.1361 7.91993L43.444 1L35.3795 13.662L29.661 10.7173Z" fill="#F8ED6A" stroke="#F8ED6A"/>
<path d="M1.96875 21.25H0L4.78125 37H6.75L10.125 24.0625H10.4062L13.7812 37H16.0312L29.8125 10.2812L27.5625 10.8438L14.9062 35.0312L11.25 21.25H9.5625L5.90625 35.0312H5.625L1.96875 21.25Z" fill="url(#paint0_linear_105_42)"/>
<defs>
<linearGradient id="paint0_linear_105_42" x1="-3.75873e-07" y1="21.25" x2="15.75" y2="37" gradientUnits="userSpaceOnUse">
<stop stop-color="#F8ED6A"/>
<stop offset="1" stop-color="#52B350"/>
</linearGradient>
</defs>
</svg>
