<svg width="166" height="36" viewBox="0 0 166 36" fill="none" xmlns="http://www.w3.org/2000/svg">
<path d="M22.3429 11.2638L13.1406 29.7863H17.6238V29.3144L28.8316 17.0447L32.4889 18.6964L37.9159 11.4998L42.8709 16.9267L44.2866 15.1571L38.7417 6.66271L36.6181 9.96608L35.2024 6.42676L32.7249 11.1459L31.899 9.02226L28.9496 15.1571L26.944 12.0897L24.4665 15.1571L22.3429 11.2638Z" fill="#A9E18F" stroke="#A9E18F"/>
<path d="M17.9783 28.9597V29.7855H56.2029L45.9389 13.6226L42.9895 16.926L38.0344 11.499L32.3715 18.5777L28.9502 16.926L17.9783 28.9597Z" fill="#52B350" stroke="#52B350"/>
<path d="M23.8937 8.82787L22.3582 11.1999L24.4843 15.1139L26.9647 12.0302L28.9727 15.1139L31.9256 8.94647L32.8705 11.0813L35.2328 6.33718L36.5321 10.0139L38.7763 6.57439L34.9966 1L28.5002 11.1999L23.8937 8.82787Z" fill="#F8ED6A" stroke="#F8ED6A"/>
<path d="M1.58594 17.3135H0L3.85156 30.001H5.4375L8.15625 19.5791H8.38281L11.1016 30.001H12.9141L24.0156 8.47754L22.2031 8.93066L12.0078 28.415L9.0625 17.3135H7.70312L4.75781 28.415H4.53125L1.58594 17.3135Z" fill="url(#paint0_linear_106_28)"/>
<path d="M95.2339 6.04064L95.2875 5.85H95.0895H92.3439H92.2284L92.1989 5.96164L87.7789 22.6712C87.6569 23.1289 87.5608 23.541 87.491 23.9072C87.4222 23.4784 87.3382 23.086 87.2387 22.7303C87.2386 22.7302 87.2386 22.7301 87.2385 22.7299L82.6527 5.96043L82.6225 5.85H82.5081H80.0793H79.9663L79.9351 5.95859L75.1529 22.6079L75.1528 22.6082C75.0087 23.1143 74.8958 23.5648 74.8148 23.9589C74.7496 23.4976 74.6569 23.0478 74.5366 22.6096L74.5366 22.6093L69.9354 5.96004L69.905 5.85H69.7908H67H66.8L66.856 6.04203L73.192 27.7466L73.2235 27.8546H73.336H76.2777H76.3912L76.4221 27.7453L80.9024 11.8532C80.9024 11.8531 80.9024 11.8531 80.9024 11.853C81.0095 11.477 81.0969 11.0954 81.1645 10.7083C81.2247 11.1175 81.3076 11.5091 81.4133 11.8832L85.8635 27.7451L85.8942 27.8546H86.0079H88.9798H89.0934L89.1242 27.7452L95.2339 6.04064ZM109.044 27.8546H109.194V27.7046V17.6242C109.194 15.676 108.735 14.1869 107.791 13.185C106.846 12.1814 105.439 11.6924 103.598 11.6924C101.591 11.6924 99.8124 12.1834 98.2673 13.1689L98.198 13.2132V13.2954V15.8382V16.1622L98.445 15.9526C99.9181 14.7028 101.564 14.0811 103.387 14.0811C104.415 14.0811 105.162 14.3986 105.657 15.0128C106.14 15.6124 106.402 16.5174 106.419 17.7513L101.918 18.3838C100.199 18.6235 98.8895 19.172 98.0086 20.0454C97.1245 20.9218 96.6894 22.1087 96.6894 23.5877C96.6894 24.9749 97.1347 26.1012 98.0338 26.9509L98.0344 26.9515C98.9444 27.8015 100.192 28.2178 101.757 28.2178C103.766 28.2178 105.325 27.379 106.42 25.7136V27.7046V27.8546H106.57H109.044ZM100.334 21.365L100.336 21.364C100.891 20.9702 101.729 20.6874 102.864 20.5274L106.42 20.0364V21.4081C106.42 22.697 106.029 23.7539 105.253 24.5906L105.253 24.5907C104.488 25.416 103.518 25.8291 102.331 25.8291C101.463 25.8291 100.783 25.6001 100.273 25.1558C99.7739 24.7016 99.5238 24.1225 99.5238 23.4061C99.5238 22.3917 99.8079 21.7291 100.334 21.365ZM126.14 12.2608L126.221 12.0556H126H123.435H123.331L123.295 12.1539L118.905 24.1111L118.904 24.111L118.901 24.1214C118.817 24.4138 118.748 24.6637 118.695 24.8706C118.591 24.4691 118.519 24.2062 118.479 24.0853L118.478 24.083L114.299 12.156L114.264 12.0556H114.158H111.412H111.193L111.272 12.2602L117.285 27.6722L116.071 30.5524L116.071 30.5529C115.766 31.2841 115.389 31.8204 114.947 32.1735C114.507 32.5247 113.995 32.7007 113.403 32.7007C112.981 32.7007 112.51 32.614 111.989 32.4363L111.79 32.3687V32.5783V34.8032V34.9145L111.897 34.9468C112.348 35.0836 112.902 35.15 113.554 35.15C115.938 35.15 117.758 33.4744 119.034 30.2419L126.14 12.2608Z" fill="white" stroke="white" stroke-width="0.3"/>
<path d="M129 28.6214V6H135.061C142.796 6 146.663 9.67558 146.663 17.0267C146.663 20.5183 145.587 23.3262 143.434 25.4506C141.291 27.5645 138.418 28.6214 134.816 28.6214H129ZM131.571 8.39781V26.2236H134.847C137.724 26.2236 139.964 25.4296 141.566 23.8416C143.168 22.2535 143.969 20.003 143.969 17.0898C143.969 11.2952 140.98 8.39781 135 8.39781H131.571Z" fill="url(#paint1_linear_106_28)"/>
<path d="M157.194 29C154.878 29 153.026 28.2481 151.638 26.7442C150.26 25.2298 149.571 23.2263 149.571 20.7339C149.571 18.0206 150.291 15.9015 151.73 14.3765C153.168 12.8516 155.112 12.0892 157.561 12.0892C159.898 12.0892 161.719 12.8306 163.026 14.3134C164.342 15.7963 165 17.8523 165 20.4815C165 23.0581 164.291 25.1246 162.872 26.6811C161.464 28.227 159.571 29 157.194 29ZM157.378 14.2661C155.765 14.2661 154.49 14.834 153.551 15.9698C152.612 17.0951 152.143 18.6516 152.143 20.6392C152.143 22.5533 152.617 24.0624 153.566 25.1667C154.515 26.2709 155.786 26.823 157.378 26.823C159 26.823 160.245 26.2814 161.112 25.1982C161.99 24.115 162.429 22.5743 162.429 20.5761C162.429 18.5569 161.99 17.0005 161.112 15.9067C160.245 14.813 159 14.2661 157.378 14.2661Z" fill="url(#paint2_linear_106_28)"/>
<path d="M128.85 28.6214V28.7714H129H134.816C138.45 28.7714 141.363 27.7043 143.539 25.5574L143.539 25.5574C145.725 23.4004 146.813 20.5517 146.813 17.0267C146.813 13.326 145.839 10.5235 143.866 8.64796C141.894 6.77382 138.95 5.85 135.061 5.85H129H128.85V6V28.6214ZM151.527 26.8451L151.528 26.8459C152.948 28.3848 154.842 29.15 157.194 29.15C159.607 29.15 161.543 28.3637 162.983 26.7821C164.432 25.1921 165.15 23.0867 165.15 20.4815C165.15 17.8278 164.485 15.7321 163.138 14.2139C161.798 12.693 159.932 11.9392 157.561 11.9392C155.079 11.9392 153.092 12.7136 151.62 14.2736C150.148 15.8338 149.421 17.994 149.421 20.7339C149.421 23.2551 150.119 25.2974 151.527 26.8451ZM153.666 16.0659L153.667 16.0654C154.574 14.9676 155.805 14.4161 157.378 14.4161C158.963 14.4161 160.161 14.9481 160.995 15.9999L160.995 16.0006C161.844 17.0582 162.279 18.5764 162.279 20.5761C162.279 22.5545 161.844 24.0567 160.996 25.1038L160.995 25.1045C160.161 26.1459 158.963 26.673 157.378 26.673C155.825 26.673 154.598 26.1367 153.68 25.0689C152.761 23.9994 152.293 22.5289 152.293 20.6392C152.293 18.6742 152.757 17.156 153.666 16.0659ZM131.721 26.0736V8.54781H135C137.968 8.54781 140.166 9.26687 141.623 10.6785C143.078 12.0894 143.819 14.2168 143.819 17.0898C143.819 19.9752 143.027 22.1827 141.461 23.735C139.894 25.2881 137.696 26.0736 134.847 26.0736H131.721Z" stroke="black" stroke-opacity="0.2" stroke-width="0.3"/>
<defs>
<linearGradient id="paint0_linear_106_28" x1="-3.02787e-07" y1="17.3135" x2="12.6875" y2="30.001" gradientUnits="userSpaceOnUse">
<stop stop-color="#F8ED6A"/>
<stop offset="1" stop-color="#52B350"/>
</linearGradient>
<linearGradient id="paint1_linear_106_28" x1="126.122" y1="1.56406" x2="164.085" y2="27.5421" gradientUnits="userSpaceOnUse">
<stop stop-color="#F6ED6A"/>
<stop offset="0.986378" stop-color="#52B350"/>
</linearGradient>
<linearGradient id="paint2_linear_106_28" x1="126.122" y1="1.56406" x2="164.085" y2="27.5421" gradientUnits="userSpaceOnUse">
<stop stop-color="#F6ED6A"/>
<stop offset="0.986378" stop-color="#52B350"/>
</linearGradient>
</defs>
</svg>
