<svg width="115" height="28" viewBox="0 0 115 28" fill="none" xmlns="http://www.w3.org/2000/svg">
<path d="M17.4679 9.02487L10.2734 23.5061H13.7784V23.1371L22.5409 13.5445L25.4003 14.8358L29.6432 9.20935L33.5171 13.4522L34.624 12.0687L30.2888 5.42764L28.6286 8.01027L27.5217 5.24316L25.5848 8.93264L24.9391 7.27237L22.6332 12.0687L21.0651 9.67053L19.1282 12.0687L17.4679 9.02487Z" fill="#A9E18F" stroke="#A9E18F"/>
<path d="M14.0557 22.86V23.5057H43.9404L35.9158 10.8692L33.6099 13.4519L29.7359 9.20898L25.3086 14.7432L22.6337 13.4519L14.0557 22.86Z" fill="#52B350" stroke="#52B350"/>
<path d="M18.6805 7.11997L17.48 8.9745L19.1422 12.0345L21.0815 9.62359L22.6513 12.0345L24.96 7.21269L25.6987 8.88178L27.5456 5.17271L28.5615 8.04724L30.316 5.35816L27.361 1L22.282 8.9745L18.6805 7.11997Z" fill="#F8ED6A" stroke="#F8ED6A"/>
<path d="M1.23991 13.7538H0L3.01122 23.6731H4.25114L6.3767 15.5251H6.55384L8.6794 23.6731H10.0964L18.7759 6.8457L17.3588 7.19996L9.38793 22.4332L7.08523 13.7538H6.02244L3.71974 22.4332H3.54261L1.23991 13.7538Z" fill="url(#paint0_linear_117_1949)"/>
<path d="M70.1877 9.3883L70.2413 9.19766H70.0433H68.317H68.2015L68.172 9.3093L65.3929 19.8154C65.3929 19.8155 65.3928 19.8156 65.3928 19.8157C65.3458 19.9922 65.3047 20.1583 65.2699 20.3138C65.2375 20.1506 65.2011 19.9967 65.1607 19.8522C65.1607 19.852 65.1606 19.8519 65.1606 19.8517L62.2773 9.30809L62.2471 9.19766H62.1326H60.6055H60.4925L60.4613 9.30625L57.4545 19.7746L57.4544 19.7749C57.3963 19.9791 57.3461 20.1692 57.3041 20.3451C57.2687 20.1523 57.2254 19.9627 57.1742 19.7763L57.1742 19.776L54.2812 9.3077L54.2508 9.19766H54.1366H52.3818H52.1818L52.2378 9.38969L56.2216 23.0366L56.2532 23.1446H56.3656H58.2152H58.3288L58.3596 23.0353L61.1766 13.0431C61.1766 13.0431 61.1766 13.043 61.1767 13.043C61.2169 12.9017 61.2527 12.7592 61.2842 12.6154C61.3143 12.7683 61.3498 12.9171 61.3907 13.0619L64.1888 23.0351L64.2195 23.1446H64.3332H66.2018H66.3154L66.3462 23.0352L70.1877 9.3883ZM78.8171 23.1446H78.9671V22.9946V16.6565C78.9671 15.4237 78.677 14.4713 78.0703 13.8271C77.4619 13.1812 76.5598 12.8711 75.393 12.8711C74.1216 12.8711 72.9928 13.1823 72.0114 13.8082L71.9421 13.8525V13.9347V15.5335V15.8575L72.1891 15.6479C73.1059 14.8701 74.128 14.4844 75.2602 14.4844C75.8946 14.4844 76.3464 14.6796 76.6444 15.0495C76.9309 15.4051 77.0933 15.944 77.1101 16.6881L74.3289 17.0789C74.3288 17.0789 74.3288 17.0789 74.3287 17.0789C73.2415 17.2306 72.4049 17.5787 71.8395 18.1392C71.2709 18.7029 70.9936 19.4646 70.9936 20.406C70.9936 21.2913 71.2783 22.0149 71.8563 22.5611L71.8569 22.5617C72.4421 23.1083 73.2415 23.373 74.2358 23.373C75.4569 23.373 76.4193 22.8858 77.1115 21.922V22.9946V23.1446H77.2615H78.8171ZM73.3726 19.0543L73.374 19.0533C73.7127 18.8131 74.2294 18.637 74.9396 18.537L77.1115 18.2371V19.0356C77.1115 19.8337 76.8698 20.4842 76.3927 20.9988L76.3927 20.9988C75.9231 21.5058 75.3282 21.7597 74.5962 21.7597C74.0613 21.7597 73.6475 21.6187 73.3396 21.3504C73.0382 21.076 72.8871 20.7273 72.8871 20.2918C72.8871 19.6633 73.0629 19.2686 73.3726 19.0543ZM89.618 13.3046L89.699 13.0995H89.4785H87.866H87.7613L87.7252 13.1978L84.965 20.716L84.9646 20.7158L84.9616 20.7262C84.9338 20.8231 84.9086 20.9127 84.886 20.995C84.8484 20.8541 84.8205 20.7558 84.8024 20.7013L84.8016 20.699L82.1742 13.1999L82.139 13.0995H82.0326H80.3063H80.0868L80.1665 13.304L83.9385 22.9734L83.1844 24.7635L83.1842 24.764C82.9946 25.2181 82.7625 25.5464 82.4939 25.7609C82.2276 25.9735 81.9179 26.0802 81.5583 26.0802C81.3004 26.0802 81.0103 26.0272 80.6867 25.917L80.4883 25.8494V26.0589V27.4579V27.5691L80.5947 27.6014C80.8853 27.6896 81.2394 27.7316 81.6532 27.7316C83.1861 27.7316 84.3444 26.6516 85.1505 24.6104L89.618 13.3046Z" fill="#3E3E3E" stroke="#3E3E3E" stroke-width="0.3"/>
<path d="M91.3647 23.571V9.34766H95.1758C100.039 9.34766 102.471 11.6587 102.471 16.2808C102.471 18.4761 101.794 20.2417 100.44 21.5774C99.0927 22.9065 97.2866 23.571 95.0218 23.571H91.3647ZM92.9815 10.8553V22.0634H95.041C96.8503 22.0634 98.2586 21.5641 99.2659 20.5657C100.273 19.5672 100.777 18.1521 100.777 16.3205C100.777 12.677 98.897 10.8553 95.1373 10.8553H92.9815Z" fill="url(#paint1_linear_117_1949)"/>
<path d="M109.092 23.8091C107.635 23.8091 106.471 23.3363 105.598 22.3907C104.732 21.4385 104.299 20.1788 104.299 18.6117C104.299 16.9057 104.751 15.5733 105.656 14.6145C106.561 13.6557 107.783 13.1763 109.323 13.1763C110.792 13.1763 111.937 13.6424 112.759 14.5748C113.586 15.5071 114 16.7999 114 18.453C114 20.073 113.554 21.3724 112.662 22.351C111.777 23.323 110.587 23.8091 109.092 23.8091ZM109.207 14.545C108.194 14.545 107.392 14.9021 106.801 15.6162C106.211 16.3238 105.916 17.3024 105.916 18.5522C105.916 19.7556 106.214 20.7045 106.811 21.3988C107.408 22.0931 108.206 22.4403 109.207 22.4403C110.227 22.4403 111.01 22.0997 111.556 21.4187C112.107 20.7376 112.383 19.7689 112.383 18.5125C112.383 17.2429 112.107 16.2643 111.556 15.5766C111.01 14.8889 110.227 14.545 109.207 14.545Z" fill="url(#paint2_linear_117_1949)"/>
<path d="M91.2147 23.571V23.721H91.3647H95.0218C97.3177 23.721 99.1646 23.0463 100.545 21.6841L100.545 21.6841C101.932 20.3158 102.621 18.5095 102.621 16.2808C102.621 13.9446 102.006 12.1654 100.75 10.9722C99.4962 9.78034 97.6287 9.19766 95.1758 9.19766H91.3647H91.2147V9.34766V23.571ZM105.487 22.4916L105.488 22.4924C106.393 23.473 107.6 23.9591 109.092 23.9591C110.623 23.9591 111.855 23.4597 112.773 22.452C113.695 21.4399 114.15 20.1016 114.15 18.453C114.15 16.7756 113.73 15.4433 112.871 14.4756C112.016 13.505 110.826 13.0263 109.323 13.0263C107.749 13.0263 106.485 13.5176 105.547 14.5115C104.609 15.5056 104.149 16.8791 104.149 18.6117C104.149 20.2076 104.591 21.5061 105.487 22.4916ZM106.917 15.7123L106.917 15.7118C107.476 15.0357 108.234 14.695 109.207 14.695C110.19 14.695 110.926 15.024 111.438 15.6698L111.439 15.6704C111.961 16.322 112.233 17.2624 112.233 18.5125C112.233 19.749 111.961 20.6793 111.439 21.3242L111.438 21.3249C110.927 21.9642 110.191 22.2903 109.207 22.2903C108.246 22.2903 107.49 21.9589 106.925 21.3011C106.358 20.6416 106.066 19.7312 106.066 18.5522C106.066 17.325 106.356 16.3846 106.917 15.7123ZM93.1315 21.9134V11.0053H95.1373C96.9952 11.0053 98.3608 11.4555 99.2626 12.3293C100.163 13.2023 100.627 14.5231 100.627 16.3205C100.627 18.1243 100.132 19.4964 99.1603 20.4591C98.1883 21.4226 96.8222 21.9134 95.041 21.9134H93.1315Z" stroke="black" stroke-opacity="0.2" stroke-width="0.3"/>
<defs>
<linearGradient id="paint0_linear_117_1949" x1="-2.36724e-07" y1="13.7538" x2="9.91932" y2="23.6731" gradientUnits="userSpaceOnUse">
<stop stop-color="#F8ED6A"/>
<stop offset="1" stop-color="#52B350"/>
</linearGradient>
<linearGradient id="paint1_linear_117_1949" x1="89.5555" y1="6.55853" x2="113.425" y2="22.8924" gradientUnits="userSpaceOnUse">
<stop stop-color="#F6ED6A"/>
<stop offset="0.986378" stop-color="#52B350"/>
</linearGradient>
<linearGradient id="paint2_linear_117_1949" x1="89.5555" y1="6.55853" x2="113.425" y2="22.8924" gradientUnits="userSpaceOnUse">
<stop stop-color="#F6ED6A"/>
<stop offset="0.986378" stop-color="#52B350"/>
</linearGradient>
</defs>
</svg>
