<svg width="26" height="28" viewBox="0 0 26 28" fill="none" xmlns="http://www.w3.org/2000/svg">
<path d="M10.7577 24.7939C10.9585 25.1592 11.2537 25.4638 11.6124 25.6759C11.9712 25.8881 12.3803 26 12.7971 26C13.2139 26 13.6231 25.8881 13.9818 25.6759C14.3406 25.4638 14.6358 25.1592 14.8366 24.7939M5.59904 9.19808C5.59904 7.28903 6.35741 5.45817 7.70731 4.10827C9.05721 2.75837 10.8881 2 12.7971 2C14.7062 2 16.537 2.75837 17.8869 4.10827C19.2368 5.45817 19.9952 7.28903 19.9952 9.19808C19.9952 17.5958 23.5942 19.9952 23.5942 19.9952H2C2 19.9952 5.59904 17.5958 5.59904 9.19808Z" stroke="#3D3D3D" stroke-width="3" stroke-linecap="round" stroke-linejoin="round"/>
</svg>
