<svg width="40" height="38" viewBox="0 0 40 38" fill="none" xmlns="http://www.w3.org/2000/svg">
<path d="M20 29.3636C17.1067 29.3636 14.332 28.2718 12.2861 26.3282C10.2403 24.3846 9.09091 21.7486 9.09091 19C9.09091 16.2514 10.2403 13.6154 12.2861 11.6718C14.332 9.72824 17.1067 8.63636 20 8.63636C22.8933 8.63636 25.668 9.72824 27.7139 11.6718C29.7597 13.6154 30.9091 16.2514 30.9091 19C30.9091 21.7486 29.7597 24.3846 27.7139 26.3282C25.668 28.2718 22.8933 29.3636 20 29.3636ZM18.1818 0H21.8182V5.18182H18.1818V0ZM18.1818 32.8182H21.8182V38H18.1818V32.8182ZM4.57273 6.78645L7.14364 4.34409L11 8.00764L8.42909 10.45L4.57273 6.78645ZM29 29.9924L31.5709 27.55L35.4273 31.2135L32.8564 33.6559L29 29.9924ZM32.8564 4.34236L35.4273 6.78645L31.5709 10.45L29 8.00764L32.8564 4.34409V4.34236ZM8.42909 27.55L11 29.9924L7.14364 33.6559L4.57273 31.2135L8.42909 27.55ZM40 17.2727V20.7273H34.5455V17.2727H40ZM5.45455 17.2727V20.7273H0V17.2727H5.45455Z" fill="#DECF13"/>
</svg>
